<svg width="77px" height="88px" viewBox="0 0 77 88" version="1.1" xmlns="http://www.w3.org/2000/svg" xmlns:xlink="http://www.w3.org/1999/xlink">
    <g id="Page-1" stroke="none" stroke-width="1" fill="none" fill-rule="evenodd">
        <g id="SignUp_user" transform="translate(-23.000000, -59.000000)">
            <g id="Page-1" transform="translate(23.000000, 59.000000)">
                <path d="M29.3247267,83.9900058 C-5.57067333,65.8964406 -5.63274,25.7340058 13.11266,10.6324406 C31.85806,-4.46912464 61.2421933,-2.93486377 70.2811267,18.5027014 C89.2811267,63.5650783 56.3477933,97.9998609 29.3247267,83.9900058 Z" id="Fill-1" fill="#F9F5F0"></path>
                <path d="M70.2811267,18.5027014 C89.2811267,63.5650783 56.3477933,97.9998609 29.3247267,83.9900058 C-5.57067333,65.8964406 -5.63274,25.7340058 13.11266,10.6324406 C31.85806,-4.46912464 61.2421933,-2.93486377 70.2811267,18.5027014 Z" id="Stroke-3" stroke="#FEFEFE"></path>
                <polygon id="Fill-5" fill="#3D1A44" points="27.69288 37.3568928 27.69288 46.0956754 23.9739467 46.0956754 23.9739467 25.0496464 37.4652133 25.0496464 37.4652133 28.4395594 27.69288 28.4395594 27.69288 33.9682551"></polygon>
                <path d="M33.6335467,39.1425275 C32.4023467,39.1425275 31.40548,38.1388174 31.40548,36.8991652 C31.40548,35.659513 32.4023467,34.6558029 33.6335467,34.6558029 C34.86348,34.6558029 35.8616133,35.659513 35.8616133,36.8991652 C35.8616133,38.1388174 34.86348,39.1425275 33.6335467,39.1425275 Z" id="Fill-7" fill="#3D1A44"></path>
                <polygon id="Fill-9" fill="#3D1A44" points="44.68344 47.8735304 44.68344 56.612313 40.9645067 56.612313 40.9645067 35.5662841 54.4557733 35.5662841 54.4557733 38.9561971 44.68344 38.9561971 44.68344 44.4848928"></polygon>
                <path d="M50.6241067,49.6591652 C49.3929067,49.6591652 48.39604,48.6554551 48.39604,47.4158029 C48.39604,46.1761507 49.3929067,45.1724406 50.6241067,45.1724406 C51.85404,45.1724406 52.8521733,46.1761507 52.8521733,47.4158029 C52.8521733,48.6554551 51.85404,49.6591652 50.6241067,49.6591652 Z" id="Fill-11" fill="#3D1A44"></path>
            </g>
        </g>
    </g>
</svg>