<?xml version="1.0" encoding="UTF-8" standalone="no"?>
<svg width="519px" height="74px" viewBox="0 0 519 74" version="1.1" xmlns="http://www.w3.org/2000/svg" xmlns:xlink="http://www.w3.org/1999/xlink">
    <!-- Generator: Sketch 39.1 (31720) - http://www.bohemiancoding.com/sketch -->
    <title>Layer_1</title>
    <desc>Created with Sketch.</desc>
    <defs></defs>
    <g id="Page-1" stroke="none" stroke-width="1" fill="none" fill-rule="evenodd">
        <g id="logo" fill="#555555">
            <g id="Layer_1">
                <polygon id="Shape" points="13 42.6 13 72.3 0.3 72.3 0.3 0.9 46.4 0.9 46.4 12.4 13 12.4 13 31.2"></polygon>
                <path d="M50.5,48 C50.5,44.2 51.2,40.7 52.6,37.6 C54,34.5 55.8,31.8 58.2,29.6 C60.6,27.4 63.3,25.7 66.6,24.5 C69.8,23.3 73.3,22.7 76.9,22.7 C80.5,22.7 84,23.3 87.2,24.5 C90.4,25.7 93.2,27.4 95.6,29.6 C98,31.8 99.8,34.5 101.2,37.6 C102.6,40.7 103.3,44.2 103.3,48 C103.3,51.8 102.6,55.3 101.2,58.4 C99.8,61.5 98,64.2 95.6,66.4 C93.2,68.6 90.5,70.3 87.2,71.5 C84,72.7 80.5,73.3 76.9,73.3 C73.3,73.3 69.8,72.7 66.6,71.5 C63.4,70.3 60.6,68.6 58.2,66.4 C55.8,64.2 54,61.5 52.6,58.4 C51.2,55.3 50.5,51.9 50.5,48 L50.5,48 Z M62.6,48 C62.6,49.9 62.9,51.7 63.6,53.5 C64.2,55.2 65.2,56.8 66.4,58.1 C67.6,59.4 69.1,60.5 70.9,61.3 C72.6,62.1 74.6,62.5 76.9,62.5 C79.1,62.5 81.1,62.1 82.9,61.3 C84.6,60.5 86.1,59.4 87.4,58.1 C88.7,56.8 89.6,55.2 90.2,53.5 C90.8,51.8 91.2,49.9 91.2,48 C91.2,46.1 90.9,44.3 90.2,42.6 C89.6,40.9 88.6,39.3 87.4,38 C86.2,36.7 84.7,35.6 82.9,34.8 C81.1,34 79.2,33.6 76.9,33.6 C74.7,33.6 72.7,34 70.9,34.8 C69.1,35.6 67.7,36.7 66.4,38 C65.2,39.3 64.2,40.9 63.6,42.6 C62.9,44.3 62.6,46.1 62.6,48 L62.6,48 Z" id="Shape"></path>
                <path d="M112.1,48 C112.1,44.2 112.8,40.7 114.2,37.6 C115.6,34.5 117.4,31.8 119.8,29.6 C122.2,27.4 124.9,25.7 128.2,24.5 C131.4,23.3 134.9,22.7 138.5,22.7 C142.1,22.7 145.6,23.3 148.8,24.5 C152,25.7 154.8,27.4 157.2,29.6 C159.6,31.8 161.4,34.5 162.8,37.6 C164.2,40.7 164.9,44.2 164.9,48 C164.9,51.8 164.2,55.3 162.8,58.4 C161.4,61.5 159.6,64.2 157.2,66.4 C154.8,68.6 152.1,70.3 148.8,71.5 C145.6,72.7 142.1,73.3 138.5,73.3 C134.9,73.3 131.4,72.7 128.2,71.5 C125,70.3 122.2,68.6 119.8,66.4 C117.4,64.2 115.6,61.5 114.2,58.4 C112.7,55.3 112.1,51.9 112.1,48 L112.1,48 Z M124.2,48 C124.2,49.9 124.5,51.7 125.2,53.5 C125.8,55.2 126.8,56.8 128,58.1 C129.2,59.4 130.7,60.5 132.5,61.3 C134.2,62.1 136.2,62.5 138.5,62.5 C140.7,62.5 142.7,62.1 144.5,61.3 C146.2,60.5 147.7,59.4 149,58.1 C150.3,56.8 151.2,55.2 151.8,53.5 C152.4,51.8 152.8,49.9 152.8,48 C152.8,46.1 152.5,44.3 151.8,42.6 C151.2,40.9 150.2,39.3 149,38 C147.8,36.7 146.3,35.6 144.5,34.8 C142.7,34 140.8,33.6 138.5,33.6 C136.3,33.6 134.3,34 132.5,34.8 C130.7,35.6 129.3,36.7 128,38 C126.8,39.3 125.8,40.9 125.2,42.6 C124.5,44.3 124.2,46.1 124.2,48 L124.2,48 Z" id="Shape"></path>
                <path d="M214.4,65 L214.2,65 C212.5,68 210.1,70.1 207.1,71.5 C204.1,72.8 200.9,73.5 197.5,73.5 C193.7,73.5 190.4,72.8 187.5,71.5 C184.6,70.2 182.1,68.4 180,66.1 C177.9,63.8 176.3,61.1 175.3,58 C174.2,54.9 173.7,51.6 173.7,48 C173.7,44.4 174.3,41.1 175.4,38 C176.5,34.9 178.1,32.2 180.2,29.9 C182.3,27.6 184.7,25.8 187.6,24.5 C190.5,23.2 193.7,22.5 197.1,22.5 C199.4,22.5 201.4,22.7 203.2,23.2 C204.9,23.7 206.5,24.3 207.8,25 C209.1,25.7 210.3,26.5 211.2,27.4 C212.1,28.2 212.9,29.1 213.5,29.9 L213.8,29.9 L213.8,1.1 L225.9,1.1 L225.9,72.2 L214.4,72.2 L214.4,65 L214.4,65 Z M185.7,48 C185.7,49.9 186,51.7 186.7,53.5 C187.3,55.2 188.3,56.8 189.5,58.1 C190.7,59.4 192.2,60.5 194,61.3 C195.7,62.1 197.7,62.5 200,62.5 C202.2,62.5 204.2,62.1 206,61.3 C207.7,60.5 209.2,59.4 210.5,58.1 C211.8,56.8 212.7,55.2 213.3,53.5 C213.9,51.8 214.3,49.9 214.3,48 C214.3,46.1 214,44.3 213.3,42.6 C212.7,40.9 211.7,39.3 210.5,38 C209.3,36.7 207.8,35.6 206,34.8 C204.2,34 202.3,33.6 200,33.6 C197.8,33.6 195.8,34 194,34.8 C192.2,35.6 190.8,36.7 189.5,38 C188.3,39.3 187.3,40.9 186.7,42.6 C186,44.3 185.7,46.1 185.7,48 L185.7,48 Z" id="Shape"></path>
                <path d="M367.6,65 L367.4,65 C365.7,68 363.3,70.1 360.3,71.5 C357.3,72.8 354.1,73.5 350.7,73.5 C346.9,73.5 343.6,72.8 340.7,71.5 C337.8,70.2 335.3,68.4 333.2,66.1 C331.1,63.8 329.5,61.1 328.5,58 C327.4,54.9 326.9,51.6 326.9,48 C326.9,44.4 327.5,41.1 328.6,38 C329.7,34.9 331.3,32.2 333.4,29.9 C335.5,27.6 337.9,25.8 340.8,24.5 C343.7,23.2 346.9,22.5 350.3,22.5 C352.6,22.5 354.6,22.7 356.4,23.2 C358.1,23.7 359.7,24.3 361,25 C362.3,25.7 363.5,26.5 364.4,27.4 C365.3,28.2 366.1,29.1 366.7,29.9 L367,29.9 L367,23.7 L379.1,23.7 L379.1,72.1 L367.6,72.1 L367.6,65 L367.6,65 Z M339,48 C339,49.9 339.3,51.7 340,53.5 C340.6,55.2 341.6,56.8 342.8,58.1 C344,59.4 345.5,60.5 347.3,61.3 C349,62.1 351,62.5 353.3,62.5 C355.5,62.5 357.5,62.1 359.3,61.3 C361,60.5 362.5,59.4 363.8,58.1 C365,56.8 366,55.2 366.6,53.5 C367.2,51.8 367.6,49.9 367.6,48 C367.6,46.1 367.3,44.3 366.6,42.6 C366,40.9 365,39.3 363.8,38 C362.6,36.7 361.1,35.6 359.3,34.8 C357.5,34 355.6,33.6 353.3,33.6 C351.1,33.6 349.1,34 347.3,34.8 C345.5,35.6 344.1,36.7 342.8,38 C341.6,39.3 340.6,40.9 340,42.6 C339.3,44.3 339,46.1 339,48 L339,48 Z" id="Shape"></path>
                <polygon id="Shape" points="289.5 42.6 289.5 72.3 276.8 72.3 276.8 0.9 322.9 0.9 322.9 12.4 289.5 12.4 289.5 31.2"></polygon>
                <path d="M443.3,23.8 L454.8,23.8 L454.8,31.4 L455,31.4 C456.1,29.1 457.8,27.1 460.2,25.3 C462.6,23.5 465.8,22.6 469.8,22.6 C477.4,22.6 482.4,25.6 484.9,31.6 C486.6,28.5 488.8,26.2 491.5,24.8 C494.2,23.4 497.2,22.6 500.9,22.6 C504.1,22.6 506.9,23.1 509.1,24.2 C511.3,25.3 513.1,26.8 514.5,28.6 C515.9,30.5 516.9,32.7 517.5,35.2 C518.1,37.7 518.4,40.4 518.4,43.3 L518.4,72.2 L506.3,72.2 L506.3,44.8 C506.3,43.3 506.2,41.9 505.9,40.5 C505.6,39.1 505.2,37.9 504.5,36.9 C503.8,35.9 502.9,35 501.8,34.4 C500.7,33.8 499.2,33.5 497.4,33.5 C495.5,33.5 493.9,33.9 492.6,34.6 C491.3,35.3 490.2,36.3 489.4,37.4 C488.6,38.6 488,39.9 487.6,41.4 C487.2,42.9 487,44.4 487,46 L487,72.2 L474.9,72.2 L474.9,43.3 C474.9,40.3 474.3,37.9 473,36.1 C471.7,34.3 469.6,33.4 466.6,33.4 C464.6,33.4 462.9,33.7 461.5,34.4 C460.1,35.1 459,36 458.1,37.1 C457.2,38.2 456.5,39.6 456.1,41 C455.7,42.5 455.5,44 455.5,45.6 L455.5,72 L443.4,72 L443.4,23.8 L443.3,23.8 Z" id="Shape"></path>
                <path d="M20.3,35.4 C20.3,36.4 20.5,37.4 20.8,38.4 C21.1,39.4 21.7,40.2 22.3,40.9 C23,41.6 23.8,42.2 24.7,42.7 C25.7,43.1 26.7,43.4 27.9,43.4 C29.1,43.4 30.2,43.2 31.1,42.7 C32.1,42.3 32.9,41.7 33.5,40.9 C34.2,40.2 34.7,39.3 35,38.4 C35.3,37.4 35.5,36.5 35.5,35.4 C35.5,34.4 35.3,33.4 35,32.4 C34.7,31.4 34.1,30.6 33.5,29.9 C32.8,29.2 32,28.6 31.1,28.1 C30.1,27.7 29.1,27.4 27.9,27.4 C26.7,27.4 25.6,27.6 24.7,28.1 C23.7,28.5 22.9,29.1 22.3,29.9 C21.6,30.6 21.1,31.5 20.8,32.4 C20.4,33.4 20.3,34.4 20.3,35.4 L20.3,35.4 Z" id="Shape"></path>
                <path d="M297.9,35.4 C297.9,36.4 298.1,37.4 298.4,38.4 C298.7,39.4 299.3,40.2 299.9,40.9 C300.6,41.6 301.4,42.2 302.3,42.7 C303.3,43.1 304.3,43.4 305.5,43.4 C306.7,43.4 307.8,43.2 308.7,42.7 C309.7,42.3 310.5,41.7 311.1,40.9 C311.8,40.2 312.3,39.3 312.6,38.4 C312.9,37.4 313.1,36.5 313.1,35.4 C313.1,34.4 312.9,33.4 312.6,32.4 C312.3,31.4 311.7,30.6 311.1,29.9 C310.4,29.2 309.6,28.6 308.7,28.1 C307.7,27.7 306.7,27.4 305.5,27.4 C304.3,27.4 303.2,27.6 302.3,28.1 C301.3,28.5 300.5,29.1 299.9,29.9 C299.2,30.6 298.7,31.5 298.4,32.4 C298.1,33.4 297.9,34.4 297.9,35.4 L297.9,35.4 Z" id="Shape"></path>
                <polyline id="Shape" points="409.6 72.1 397.5 72.1 397.5 23.7 409.6 23.7"></polyline>
                <path d="M416.5,31.7 C416.5,32.7 416.7,33.7 417,34.7 C417.3,35.7 417.9,36.5 418.5,37.2 C419.2,37.9 420,38.5 420.9,39 C421.9,39.4 422.9,39.7 424.1,39.7 C425.3,39.7 426.4,39.5 427.3,39 C428.3,38.6 429.1,38 429.7,37.2 C430.4,36.5 430.9,35.6 431.2,34.7 C431.5,33.7 431.7,32.8 431.7,31.7 C431.7,30.7 431.5,29.7 431.2,28.7 C430.9,27.7 430.3,26.9 429.7,26.2 C429,25.5 428.2,24.9 427.3,24.4 C426.3,24 425.3,23.7 424.1,23.7 C422.9,23.7 421.8,23.9 420.9,24.4 C419.9,24.8 419.1,25.4 418.5,26.2 C417.8,26.9 417.3,27.8 417,28.7 C416.7,29.7 416.5,30.6 416.5,31.7 L416.5,31.7 Z" id="Shape"></path>
            </g>
        </g>
    </g>
</svg>