<svg xmlns="http://www.w3.org/2000/svg" xmlns:xlink="http://www.w3.org/1999/xlink" fill="#6ec39d" viewBox="0 0 80 80" version="1.1">
<g id="surface1">
<path style=" " d="M 6 15 C 3.25 15 1 17.25 1 20 L 1 51.417969 C 0.4375 51.773438 0 52.292969 0 53 L 0 57 C 0 58.09375 0.90625 59 2 59 L 12.058594 59 C 12.558594 63.488281 16.378906 67 21 67 C 25.621094 67 29.441406 63.488281 29.941406 59 L 54.058594 59 C 54.558594 63.488281 58.378906 67 63 67 C 67.621094 67 71.441406 63.488281 71.941406 59 L 78 59 C 79.09375 59 80 58.09375 80 57 L 80 53 C 80 52.292969 79.5625 51.773438 79 51.417969 L 79 41.332031 C 79 39.53125 78.027344 37.867188 76.464844 36.980469 L 74.804688 36.042969 L 68.414063 19.480469 C 67.375 16.785156 64.773438 15 61.886719 15 Z M 6 17 L 49.132813 17 L 51.519531 33.707031 C 51.871094 36.164063 53.988281 38 56.46875 38 L 74.199219 38 L 75.476563 38.71875 C 76.320313 39.199219 76.871094 40.050781 76.976563 41 L 74.5 41 C 72.578125 41 71 42.578125 71 44.5 L 71 45.5 L 71.203125 45.5 C 71.644531 46.929688 72.933594 48 74.5 48 L 77 48 L 77 51 C 76.449219 51 76 51.449219 76 52 C 76 52.550781 76.449219 53 77 53 L 78 53 L 78 57 L 71.941406 57 C 71.441406 52.511719 67.621094 49 63 49 C 58.378906 49 54.558594 52.511719 54.058594 57 L 29.941406 57 C 29.441406 52.511719 25.621094 49 21 49 C 16.378906 49 12.558594 52.511719 12.058594 57 L 2 57 L 2 53 L 3 53 C 3.550781 53 4 52.550781 4 52 C 4 51.449219 3.550781 51 3 51 L 3 20 C 3 18.332031 4.332031 17 6 17 Z M 51.152344 17 L 61.886719 17 C 63.953125 17 65.804688 18.269531 66.546875 20.199219 L 72.644531 36 L 56.46875 36 C 54.96875 36 53.710938 34.910156 53.5 33.421875 Z M 10 22 C 9.449219 22 9 22.449219 9 23 C 9 23.550781 9.449219 24 10 24 C 10.550781 24 11 23.550781 11 23 C 11 22.449219 10.550781 22 10 22 Z M 21 22 C 20.449219 22 20 22.449219 20 23 C 20 23.550781 20.449219 24 21 24 C 21.550781 24 22 23.550781 22 23 C 22 22.449219 21.550781 22 21 22 Z M 32 22 C 31.449219 22 31 22.449219 31 23 C 31 23.550781 31.449219 24 32 24 C 32.550781 24 33 23.550781 33 23 C 33 22.449219 32.550781 22 32 22 Z M 43 22 C 42.449219 22 42 22.449219 42 23 C 42 23.550781 42.449219 24 43 24 C 43.550781 24 44 23.550781 44 23 C 44 22.449219 43.550781 22 43 22 Z M 10 26 C 9.449219 26 9 26.449219 9 27 C 9 27.550781 9.449219 28 10 28 C 10.550781 28 11 27.550781 11 27 C 11 26.449219 10.550781 26 10 26 Z M 21 26 C 20.449219 26 20 26.449219 20 27 C 20 27.550781 20.449219 28 21 28 C 21.550781 28 22 27.550781 22 27 C 22 26.449219 21.550781 26 21 26 Z M 32 26 C 31.449219 26 31 26.449219 31 27 C 31 27.550781 31.449219 28 32 28 C 32.550781 28 33 27.550781 33 27 C 33 26.449219 32.550781 26 32 26 Z M 43 26 C 42.449219 26 42 26.449219 42 27 C 42 27.550781 42.449219 28 43 28 C 43.550781 28 44 27.550781 44 27 C 44 26.449219 43.550781 26 43 26 Z M 10 30 C 9.449219 30 9 30.449219 9 31 C 9 31.550781 9.449219 32 10 32 C 10.550781 32 11 31.550781 11 31 C 11 30.449219 10.550781 30 10 30 Z M 21 30 C 20.449219 30 20 30.449219 20 31 C 20 31.550781 20.449219 32 21 32 C 21.550781 32 22 31.550781 22 31 C 22 30.449219 21.550781 30 21 30 Z M 32 30 C 31.449219 30 31 30.449219 31 31 C 31 31.550781 31.449219 32 32 32 C 32.550781 32 33 31.550781 33 31 C 33 30.449219 32.550781 30 32 30 Z M 43 30 C 42.449219 30 42 30.449219 42 31 C 42 31.550781 42.449219 32 43 32 C 43.550781 32 44 31.550781 44 31 C 44 30.449219 43.550781 30 43 30 Z M 10 34 C 9.449219 34 9 34.449219 9 35 C 9 35.550781 9.449219 36 10 36 C 10.550781 36 11 35.550781 11 35 C 11 34.449219 10.550781 34 10 34 Z M 21 34 C 20.449219 34 20 34.449219 20 35 C 20 35.550781 20.449219 36 21 36 C 21.550781 36 22 35.550781 22 35 C 22 34.449219 21.550781 34 21 34 Z M 32 34 C 31.449219 34 31 34.449219 31 35 C 31 35.550781 31.449219 36 32 36 C 32.550781 36 33 35.550781 33 35 C 33 34.449219 32.550781 34 32 34 Z M 43 34 C 42.449219 34 42 34.449219 42 35 C 42 35.550781 42.449219 36 43 36 C 43.550781 36 44 35.550781 44 35 C 44 34.449219 43.550781 34 43 34 Z M 10 38 C 9.449219 38 9 38.449219 9 39 C 9 39.550781 9.449219 40 10 40 C 10.550781 40 11 39.550781 11 39 C 11 38.449219 10.550781 38 10 38 Z M 21 38 C 20.449219 38 20 38.449219 20 39 C 20 39.550781 20.449219 40 21 40 C 21.550781 40 22 39.550781 22 39 C 22 38.449219 21.550781 38 21 38 Z M 32 38 C 31.449219 38 31 38.449219 31 39 C 31 39.550781 31.449219 40 32 40 C 32.550781 40 33 39.550781 33 39 C 33 38.449219 32.550781 38 32 38 Z M 43 38 C 42.449219 38 42 38.449219 42 39 C 42 39.550781 42.449219 40 43 40 C 43.550781 40 44 39.550781 44 39 C 44 38.449219 43.550781 38 43 38 Z M 74.5 43 L 77 43 L 77 46 L 74.5 46 C 73.660156 46 73 45.339844 73 44.5 C 73 43.660156 73.660156 43 74.5 43 Z M 7 51 C 6.449219 51 6 51.449219 6 52 C 6 52.550781 6.449219 53 7 53 C 7.550781 53 8 52.550781 8 52 C 8 51.449219 7.550781 51 7 51 Z M 11 51 C 10.449219 51 10 51.449219 10 52 C 10 52.550781 10.449219 53 11 53 C 11.550781 53 12 52.550781 12 52 C 12 51.449219 11.550781 51 11 51 Z M 21 51 C 24.878906 51 28 54.121094 28 58 C 28 61.878906 24.878906 65 21 65 C 17.121094 65 14 61.878906 14 58 C 14 54.121094 17.121094 51 21 51 Z M 32 51 C 31.449219 51 31 51.449219 31 52 C 31 52.550781 31.449219 53 32 53 C 32.550781 53 33 52.550781 33 52 C 33 51.449219 32.550781 51 32 51 Z M 36 51 C 35.449219 51 35 51.449219 35 52 C 35 52.550781 35.449219 53 36 53 C 36.550781 53 37 52.550781 37 52 C 37 51.449219 36.550781 51 36 51 Z M 40 51 C 39.449219 51 39 51.449219 39 52 C 39 52.550781 39.449219 53 40 53 C 40.550781 53 41 52.550781 41 52 C 41 51.449219 40.550781 51 40 51 Z M 44 51 C 43.449219 51 43 51.449219 43 52 C 43 52.550781 43.449219 53 44 53 C 44.550781 53 45 52.550781 45 52 C 45 51.449219 44.550781 51 44 51 Z M 48 51 C 47.449219 51 47 51.449219 47 52 C 47 52.550781 47.449219 53 48 53 C 48.550781 53 49 52.550781 49 52 C 49 51.449219 48.550781 51 48 51 Z M 52 51 C 51.449219 51 51 51.449219 51 52 C 51 52.550781 51.449219 53 52 53 C 52.550781 53 53 52.550781 53 52 C 53 51.449219 52.550781 51 52 51 Z M 63 51 C 66.878906 51 70 54.121094 70 58 C 70 61.878906 66.878906 65 63 65 C 59.121094 65 56 61.878906 56 58 C 56 54.121094 59.121094 51 63 51 Z M 73 51 C 72.449219 51 72 51.449219 72 52 C 72 52.550781 72.449219 53 73 53 C 73.550781 53 74 52.550781 74 52 C 74 51.449219 73.550781 51 73 51 Z M 21 55 C 19.355469 55 18 56.355469 18 58 C 18 59.644531 19.355469 61 21 61 C 22.644531 61 24 59.644531 24 58 C 24 56.355469 22.644531 55 21 55 Z M 63 55 C 61.355469 55 60 56.355469 60 58 C 60 59.644531 61.355469 61 63 61 C 64.644531 61 66 59.644531 66 58 C 66 56.355469 64.644531 55 63 55 Z M 21 57 C 21.5625 57 22 57.4375 22 58 C 22 58.5625 21.5625 59 21 59 C 20.4375 59 20 58.5625 20 58 C 20 57.4375 20.4375 57 21 57 Z M 63 57 C 63.5625 57 64 57.4375 64 58 C 64 58.5625 63.5625 59 63 59 C 62.4375 59 62 58.5625 62 58 C 62 57.4375 62.4375 57 63 57 Z "></path>
</g>
</svg>