<svg xmlns="http://www.w3.org/2000/svg" xmlns:xlink="http://www.w3.org/1999/xlink" fill="#6ec39d" viewBox="0 0 80 80" version="1.1">
<g id="surface1">
<path style=" " d="M 13 12 C 11.355469 12 10 13.355469 10 15 L 10 25 C 10 26.644531 11.355469 28 13 28 L 25 28 C 26.644531 28 28 26.644531 28 25 L 28 21 C 28.550781 21 29 20.550781 29 20 C 29 19.449219 28.550781 19 28 19 L 28 15 C 28 13.355469 26.644531 12 25 12 Z M 39 12 C 37.355469 12 36 13.355469 36 15 L 36 19 C 35.449219 19 35 19.449219 35 20 C 35 20.550781 35.449219 21 36 21 L 36 25 C 36 26.644531 37.355469 28 39 28 L 51 28 C 52.644531 28 54 26.644531 54 25 L 54 21 C 54.550781 21 55 20.550781 55 20 C 55 19.449219 54.550781 19 54 19 L 54 15 C 54 13.355469 52.644531 12 51 12 Z M 13 14 L 25 14 C 25.566406 14 26 14.433594 26 15 L 26 25 C 26 25.566406 25.566406 26 25 26 L 13 26 C 12.433594 26 12 25.566406 12 25 L 12 15 C 12 14.433594 12.433594 14 13 14 Z M 39 14 L 51 14 C 51.566406 14 52 14.433594 52 15 L 52 25 C 52 25.566406 51.566406 26 51 26 L 39 26 C 38.433594 26 38 25.566406 38 25 L 38 15 C 38 14.433594 38.433594 14 39 14 Z M 15 16 C 14.449219 16 14 16.449219 14 17 C 14 17.550781 14.449219 18 15 18 C 15.550781 18 16 17.550781 16 17 C 16 16.449219 15.550781 16 15 16 Z M 19 16 C 18.449219 16 18 16.449219 18 17 C 18 17.550781 18.449219 18 19 18 C 19.550781 18 20 17.550781 20 17 C 20 16.449219 19.550781 16 19 16 Z M 23 16 C 22.449219 16 22 16.449219 22 17 C 22 17.550781 22.449219 18 23 18 C 23.550781 18 24 17.550781 24 17 C 24 16.449219 23.550781 16 23 16 Z M 41 16 C 40.449219 16 40 16.449219 40 17 C 40 17.550781 40.449219 18 41 18 C 41.550781 18 42 17.550781 42 17 C 42 16.449219 41.550781 16 41 16 Z M 45 16 C 44.449219 16 44 16.449219 44 17 C 44 17.550781 44.449219 18 45 18 C 45.550781 18 46 17.550781 46 17 C 46 16.449219 45.550781 16 45 16 Z M 49 16 C 48.449219 16 48 16.449219 48 17 C 48 17.550781 48.449219 18 49 18 C 49.550781 18 50 17.550781 50 17 C 50 16.449219 49.550781 16 49 16 Z M 32 19 C 31.449219 19 31 19.449219 31 20 C 31 20.550781 31.449219 21 32 21 C 32.550781 21 33 20.550781 33 20 C 33 19.449219 32.550781 19 32 19 Z M 58 19 C 57.449219 19 57 19.449219 57 20 C 57 20.550781 57.449219 21 58 21 C 58.550781 21 59 20.550781 59 20 C 59 19.449219 58.550781 19 58 19 Z M 62 19 C 61.449219 19 61 19.449219 61 20 C 61 20.550781 61.449219 21 62 21 C 62.550781 21 63 20.550781 63 20 C 63 19.449219 62.550781 19 62 19 Z M 62 23 C 61.449219 23 61 23.449219 61 24 C 61 24.550781 61.449219 25 62 25 C 62.550781 25 63 24.550781 63 24 C 63 23.449219 62.550781 23 62 23 Z M 62 27 C 61.449219 27 61 27.449219 61 28 C 61 28.550781 61.449219 29 62 29 C 62.550781 29 63 28.550781 63 28 C 63 27.449219 62.550781 27 62 27 Z M 62 31 C 61.449219 31 61 31.449219 61 32 L 55 32 C 53.355469 32 52 33.355469 52 35 L 52 45 C 52 46.644531 53.355469 48 55 48 L 61 48 C 61 48.550781 61.449219 49 62 49 C 62.550781 49 63 48.550781 63 48 L 67 48 C 68.644531 48 70 46.644531 70 45 L 70 35 C 70 33.355469 68.644531 32 67 32 L 63 32 C 63 31.449219 62.550781 31 62 31 Z M 55 34 L 67 34 C 67.566406 34 68 34.433594 68 35 L 68 45 C 68 45.566406 67.566406 46 67 46 L 55 46 C 54.433594 46 54 45.566406 54 45 L 54 35 C 54 34.433594 54.433594 34 55 34 Z M 57 36 C 56.449219 36 56 36.449219 56 37 C 56 37.550781 56.449219 38 57 38 C 57.550781 38 58 37.550781 58 37 C 58 36.449219 57.550781 36 57 36 Z M 61 36 C 60.449219 36 60 36.449219 60 37 C 60 37.550781 60.449219 38 61 38 C 61.550781 38 62 37.550781 62 37 C 62 36.449219 61.550781 36 61 36 Z M 65 36 C 64.449219 36 64 36.449219 64 37 C 64 37.550781 64.449219 38 65 38 C 65.550781 38 66 37.550781 66 37 C 66 36.449219 65.550781 36 65 36 Z M 62 51 C 61.449219 51 61 51.449219 61 52 C 61 52.550781 61.449219 53 62 53 C 62.550781 53 63 52.550781 63 52 C 63 51.449219 62.550781 51 62 51 Z M 13 52 C 11.355469 52 10 53.355469 10 55 L 10 65 C 10 66.644531 11.355469 68 13 68 L 25 68 C 26.644531 68 28 66.644531 28 65 L 28 61 C 28.550781 61 29 60.550781 29 60 C 29 59.449219 28.550781 59 28 59 L 28 55 C 28 53.355469 26.644531 52 25 52 Z M 39 52 C 37.355469 52 36 53.355469 36 55 L 36 59 C 35.449219 59 35 59.449219 35 60 C 35 60.550781 35.449219 61 36 61 L 36 65 C 36 66.644531 37.355469 68 39 68 L 51 68 C 52.644531 68 54 66.644531 54 65 L 54 61 C 54.550781 61 55 60.550781 55 60 C 55 59.449219 54.550781 59 54 59 L 54 55 C 54 53.355469 52.644531 52 51 52 Z M 13 54 L 25 54 C 25.566406 54 26 54.433594 26 55 L 26 65 C 26 65.566406 25.566406 66 25 66 L 13 66 C 12.433594 66 12 65.566406 12 65 L 12 55 C 12 54.433594 12.433594 54 13 54 Z M 39 54 L 51 54 C 51.566406 54 52 54.433594 52 55 L 52 65 C 52 65.566406 51.566406 66 51 66 L 39 66 C 38.433594 66 38 65.566406 38 65 L 38 55 C 38 54.433594 38.433594 54 39 54 Z M 62 55 C 61.449219 55 61 55.449219 61 56 C 61 56.550781 61.449219 57 62 57 C 62.550781 57 63 56.550781 63 56 C 63 55.449219 62.550781 55 62 55 Z M 15 56 C 14.449219 56 14 56.449219 14 57 C 14 57.550781 14.449219 58 15 58 C 15.550781 58 16 57.550781 16 57 C 16 56.449219 15.550781 56 15 56 Z M 19 56 C 18.449219 56 18 56.449219 18 57 C 18 57.550781 18.449219 58 19 58 C 19.550781 58 20 57.550781 20 57 C 20 56.449219 19.550781 56 19 56 Z M 23 56 C 22.449219 56 22 56.449219 22 57 C 22 57.550781 22.449219 58 23 58 C 23.550781 58 24 57.550781 24 57 C 24 56.449219 23.550781 56 23 56 Z M 41 56 C 40.449219 56 40 56.449219 40 57 C 40 57.550781 40.449219 58 41 58 C 41.550781 58 42 57.550781 42 57 C 42 56.449219 41.550781 56 41 56 Z M 45 56 C 44.449219 56 44 56.449219 44 57 C 44 57.550781 44.449219 58 45 58 C 45.550781 58 46 57.550781 46 57 C 46 56.449219 45.550781 56 45 56 Z M 49 56 C 48.449219 56 48 56.449219 48 57 C 48 57.550781 48.449219 58 49 58 C 49.550781 58 50 57.550781 50 57 C 50 56.449219 49.550781 56 49 56 Z M 32 59 C 31.449219 59 31 59.449219 31 60 C 31 60.550781 31.449219 61 32 61 C 32.550781 61 33 60.550781 33 60 C 33 59.449219 32.550781 59 32 59 Z M 58 59 C 57.449219 59 57 59.449219 57 60 C 57 60.550781 57.449219 61 58 61 C 58.550781 61 59 60.550781 59 60 C 59 59.449219 58.550781 59 58 59 Z M 62 59 C 61.449219 59 61 59.449219 61 60 C 61 60.550781 61.449219 61 62 61 C 62.550781 61 63 60.550781 63 60 C 63 59.449219 62.550781 59 62 59 Z "></path>
</g>
</svg>