<svg xmlns="http://www.w3.org/2000/svg" xmlns:xlink="http://www.w3.org/1999/xlink" fill="#6ec39d" viewBox="0 0 80 80" version="1.1">
<g id="surface1">
<path style=" " d="M 39 7 C 36.800781 7 35 8.800781 35 11 L 35 12 L 19.699219 12 C 18.296875 12 16.992188 12.738281 16.269531 13.941406 L 15.03125 16 L 10.5 16 C 8.578125 16 7 17.578125 7 19.5 C 7 21.25 8.316406 22.703125 10 22.949219 L 10 28 L 8.554688 28 C 6.605469 28 5 29.605469 5 31.554688 L 5 32.554688 L 5.265625 32.554688 C 5.515625 33.382813 5.960938 34.144531 6.726563 34.601563 L 10 36.566406 L 10 65 C 10 67.75 12.25 70 15 70 L 65 70 C 67.75 70 70 67.75 70 65 L 70 36.566406 L 73.277344 34.601563 C 74.039063 34.144531 74.484375 33.382813 74.734375 32.554688 L 75 32.554688 L 75 31.554688 C 75 29.605469 73.394531 28 71.445313 28 L 70 28 L 70 22.949219 C 71.683594 22.703125 73 21.25 73 19.5 C 73 17.578125 71.421875 16 69.5 16 L 64.96875 16 L 63.734375 13.941406 L 63.730469 13.941406 C 63.007813 12.738281 61.703125 12 60.300781 12 L 45 12 L 45 11 C 45 8.800781 43.199219 7 41 7 Z M 39 9 L 41 9 C 42.117188 9 43 9.882813 43 11 L 43 12 L 37 12 L 37 11 C 37 9.882813 37.882813 9 39 9 Z M 19.699219 14 L 60.300781 14 C 61.003906 14 61.652344 14.367188 62.015625 14.96875 L 63.046875 16.691406 C 63.015625 16.792969 63 16.894531 63 17 C 63 17.484375 63.347656 17.898438 63.824219 17.984375 L 63.832031 18 L 69.5 18 C 70.339844 18 71 18.660156 71 19.5 C 71 20.339844 70.339844 21 69.5 21 L 10.5 21 C 9.660156 21 9 20.339844 9 19.5 C 9 18.660156 9.660156 18 10.5 18 L 16.167969 18 L 16.175781 17.984375 C 16.652344 17.898438 17 17.484375 17 17 C 17 16.894531 16.984375 16.792969 16.953125 16.691406 L 17.984375 14.96875 C 18.347656 14.367188 18.996094 14 19.699219 14 Z M 20 16 C 19.449219 16 19 16.449219 19 17 C 19 17.550781 19.449219 18 20 18 C 20.550781 18 21 17.550781 21 17 C 21 16.449219 20.550781 16 20 16 Z M 24 16 C 23.449219 16 23 16.449219 23 17 C 23 17.550781 23.449219 18 24 18 C 24.550781 18 25 17.550781 25 17 C 25 16.449219 24.550781 16 24 16 Z M 28 16 C 27.449219 16 27 16.449219 27 17 C 27 17.550781 27.449219 18 28 18 C 28.550781 18 29 17.550781 29 17 C 29 16.449219 28.550781 16 28 16 Z M 32 16 C 31.449219 16 31 16.449219 31 17 C 31 17.550781 31.449219 18 32 18 C 32.550781 18 33 17.550781 33 17 C 33 16.449219 32.550781 16 32 16 Z M 36 16 C 35.449219 16 35 16.449219 35 17 C 35 17.550781 35.449219 18 36 18 C 36.550781 18 37 17.550781 37 17 C 37 16.449219 36.550781 16 36 16 Z M 40 16 C 39.449219 16 39 16.449219 39 17 C 39 17.550781 39.449219 18 40 18 C 40.550781 18 41 17.550781 41 17 C 41 16.449219 40.550781 16 40 16 Z M 44 16 C 43.449219 16 43 16.449219 43 17 C 43 17.550781 43.449219 18 44 18 C 44.550781 18 45 17.550781 45 17 C 45 16.449219 44.550781 16 44 16 Z M 48 16 C 47.449219 16 47 16.449219 47 17 C 47 17.550781 47.449219 18 48 18 C 48.550781 18 49 17.550781 49 17 C 49 16.449219 48.550781 16 48 16 Z M 52 16 C 51.449219 16 51 16.449219 51 17 C 51 17.550781 51.449219 18 52 18 C 52.550781 18 53 17.550781 53 17 C 53 16.449219 52.550781 16 52 16 Z M 56 16 C 55.449219 16 55 16.449219 55 17 C 55 17.550781 55.449219 18 56 18 C 56.550781 18 57 17.550781 57 17 C 57 16.449219 56.550781 16 56 16 Z M 60 16 C 59.449219 16 59 16.449219 59 17 C 59 17.550781 59.449219 18 60 18 C 60.550781 18 61 17.550781 61 17 C 61 16.449219 60.550781 16 60 16 Z M 12 23 L 68 23 L 68 65 C 68 66.667969 66.667969 68 65 68 L 15 68 C 13.332031 68 12 66.667969 12 65 Z M 8.554688 30 L 10 30 L 10 34.234375 L 7.757813 32.886719 C 7.285156 32.605469 7 32.101563 7 31.554688 C 7 30.683594 7.683594 30 8.554688 30 Z M 70 30 L 71.445313 30 C 72.316406 30 73 30.683594 73 31.554688 C 73 32.101563 72.714844 32.605469 72.246094 32.886719 L 70 34.234375 Z M 16 63 C 15.449219 63 15 63.449219 15 64 C 15 64.550781 15.449219 65 16 65 C 16.550781 65 17 64.550781 17 64 C 17 63.449219 16.550781 63 16 63 Z M 20 63 C 19.449219 63 19 63.449219 19 64 C 19 64.550781 19.449219 65 20 65 C 20.550781 65 21 64.550781 21 64 C 21 63.449219 20.550781 63 20 63 Z M 24 63 C 23.449219 63 23 63.449219 23 64 C 23 64.550781 23.449219 65 24 65 C 24.550781 65 25 64.550781 25 64 C 25 63.449219 24.550781 63 24 63 Z M 28 63 C 27.449219 63 27 63.449219 27 64 C 27 64.550781 27.449219 65 28 65 C 28.550781 65 29 64.550781 29 64 C 29 63.449219 28.550781 63 28 63 Z M 32 63 C 31.449219 63 31 63.449219 31 64 C 31 64.550781 31.449219 65 32 65 C 32.550781 65 33 64.550781 33 64 C 33 63.449219 32.550781 63 32 63 Z M 36 63 C 35.449219 63 35 63.449219 35 64 C 35 64.550781 35.449219 65 36 65 C 36.550781 65 37 64.550781 37 64 C 37 63.449219 36.550781 63 36 63 Z M 40 63 C 39.449219 63 39 63.449219 39 64 C 39 64.550781 39.449219 65 40 65 C 40.550781 65 41 64.550781 41 64 C 41 63.449219 40.550781 63 40 63 Z M 44 63 C 43.449219 63 43 63.449219 43 64 C 43 64.550781 43.449219 65 44 65 C 44.550781 65 45 64.550781 45 64 C 45 63.449219 44.550781 63 44 63 Z M 48 63 C 47.449219 63 47 63.449219 47 64 C 47 64.550781 47.449219 65 48 65 C 48.550781 65 49 64.550781 49 64 C 49 63.449219 48.550781 63 48 63 Z M 52 63 C 51.449219 63 51 63.449219 51 64 C 51 64.550781 51.449219 65 52 65 C 52.550781 65 53 64.550781 53 64 C 53 63.449219 52.550781 63 52 63 Z M 56 63 C 55.449219 63 55 63.449219 55 64 C 55 64.550781 55.449219 65 56 65 C 56.550781 65 57 64.550781 57 64 C 57 63.449219 56.550781 63 56 63 Z M 60 63 C 59.449219 63 59 63.449219 59 64 C 59 64.550781 59.449219 65 60 65 C 60.550781 65 61 64.550781 61 64 C 61 63.449219 60.550781 63 60 63 Z M 64 63 C 63.449219 63 63 63.449219 63 64 C 63 64.550781 63.449219 65 64 65 C 64.550781 65 65 64.550781 65 64 C 65 63.449219 64.550781 63 64 63 Z "></path>
</g>
</svg>