<svg xmlns="http://www.w3.org/2000/svg" xmlns:xlink="http://www.w3.org/1999/xlink" viewBox="0 0 80 80" fill="#6ec39d" version="1.1">
<g id="surface1">
<path style=" " d="M 15.050781 10 C 13.40625 10 12.050781 11.355469 12.050781 13 L 12.050781 17.523438 L 7 27.765625 L 7 33 C 7 35.039063 8.238281 36.796875 10 37.574219 L 10 71 L 70 71 L 70 37.574219 C 71.761719 36.796875 73 35.039063 73 33 L 73 27.765625 L 67.949219 17.523438 L 67.949219 13 C 67.949219 11.355469 66.59375 10 64.949219 10 Z M 15.050781 12 L 64.949219 12 C 65.511719 12 65.949219 12.433594 65.949219 13 L 65.949219 17.988281 L 66.050781 18.199219 L 71 28.234375 L 71 33 C 71 34.667969 69.667969 36 68 36 C 66.332031 36 65 34.667969 65 33 L 63 33 C 63 34.667969 61.667969 36 60 36 C 58.332031 36 57 34.667969 57 33 L 55 33 C 55 34.667969 53.667969 36 52 36 C 50.332031 36 49 34.667969 49 33 L 47 33 C 47 34.667969 45.667969 36 44 36 C 42.332031 36 41 34.667969 41 33 L 39 33 C 39 34.667969 37.667969 36 36 36 C 34.332031 36 33 34.667969 33 33 L 31 33 C 31 34.667969 29.667969 36 28 36 C 26.332031 36 25 34.667969 25 33 L 23 33 C 23 34.667969 21.667969 36 20 36 C 18.332031 36 17 34.667969 17 33 L 15 33 C 15 34.667969 13.667969 36 12 36 C 10.332031 36 9 34.667969 9 33 L 9 28.234375 L 14.050781 17.988281 L 14.050781 13 C 14.050781 12.433594 14.488281 12 15.050781 12 Z M 16 16 C 15.449219 16 15 16.449219 15 17 C 15 17.550781 15.449219 18 16 18 C 16.550781 18 17 17.550781 17 17 C 17 16.449219 16.550781 16 16 16 Z M 20 16 C 19.449219 16 19 16.449219 19 17 C 19 17.550781 19.449219 18 20 18 C 20.550781 18 21 17.550781 21 17 C 21 16.449219 20.550781 16 20 16 Z M 24 16 C 23.449219 16 23 16.449219 23 17 C 23 17.550781 23.449219 18 24 18 C 24.550781 18 25 17.550781 25 17 C 25 16.449219 24.550781 16 24 16 Z M 28 16 C 27.449219 16 27 16.449219 27 17 C 27 17.550781 27.449219 18 28 18 C 28.550781 18 29 17.550781 29 17 C 29 16.449219 28.550781 16 28 16 Z M 32 16 C 31.449219 16 31 16.449219 31 17 C 31 17.550781 31.449219 18 32 18 C 32.550781 18 33 17.550781 33 17 C 33 16.449219 32.550781 16 32 16 Z M 36 16 C 35.449219 16 35 16.449219 35 17 C 35 17.550781 35.449219 18 36 18 C 36.550781 18 37 17.550781 37 17 C 37 16.449219 36.550781 16 36 16 Z M 40 16 C 39.449219 16 39 16.449219 39 17 C 39 17.550781 39.449219 18 40 18 C 40.550781 18 41 17.550781 41 17 C 41 16.449219 40.550781 16 40 16 Z M 44 16 C 43.449219 16 43 16.449219 43 17 C 43 17.550781 43.449219 18 44 18 C 44.550781 18 45 17.550781 45 17 C 45 16.449219 44.550781 16 44 16 Z M 48 16 C 47.449219 16 47 16.449219 47 17 C 47 17.550781 47.449219 18 48 18 C 48.550781 18 49 17.550781 49 17 C 49 16.449219 48.550781 16 48 16 Z M 52 16 C 51.449219 16 51 16.449219 51 17 C 51 17.550781 51.449219 18 52 18 C 52.550781 18 53 17.550781 53 17 C 53 16.449219 52.550781 16 52 16 Z M 56 16 C 55.449219 16 55 16.449219 55 17 C 55 17.550781 55.449219 18 56 18 C 56.550781 18 57 17.550781 57 17 C 57 16.449219 56.550781 16 56 16 Z M 60 16 C 59.449219 16 59 16.449219 59 17 C 59 17.550781 59.449219 18 60 18 C 60.550781 18 61 17.550781 61 17 C 61 16.449219 60.550781 16 60 16 Z M 64 16 C 63.449219 16 63 16.449219 63 17 C 63 17.550781 63.449219 18 64 18 C 64.550781 18 65 17.550781 65 17 C 65 16.449219 64.550781 16 64 16 Z M 12 28 C 11.449219 28 11 28.449219 11 29 C 11 29.550781 11.449219 30 12 30 C 12.550781 30 13 29.550781 13 29 C 13 28.449219 12.550781 28 12 28 Z M 16 28 C 15.449219 28 15 28.449219 15 29 C 15 29.550781 15.449219 30 16 30 C 16.550781 30 17 29.550781 17 29 C 17 28.449219 16.550781 28 16 28 Z M 20 28 C 19.449219 28 19 28.449219 19 29 C 19 29.550781 19.449219 30 20 30 C 20.550781 30 21 29.550781 21 29 C 21 28.449219 20.550781 28 20 28 Z M 24 28 C 23.449219 28 23 28.449219 23 29 C 23 29.550781 23.449219 30 24 30 C 24.550781 30 25 29.550781 25 29 C 25 28.449219 24.550781 28 24 28 Z M 28 28 C 27.449219 28 27 28.449219 27 29 C 27 29.550781 27.449219 30 28 30 C 28.550781 30 29 29.550781 29 29 C 29 28.449219 28.550781 28 28 28 Z M 32 28 C 31.449219 28 31 28.449219 31 29 C 31 29.550781 31.449219 30 32 30 C 32.550781 30 33 29.550781 33 29 C 33 28.449219 32.550781 28 32 28 Z M 36 28 C 35.449219 28 35 28.449219 35 29 C 35 29.550781 35.449219 30 36 30 C 36.550781 30 37 29.550781 37 29 C 37 28.449219 36.550781 28 36 28 Z M 40 28 C 39.449219 28 39 28.449219 39 29 C 39 29.550781 39.449219 30 40 30 C 40.550781 30 41 29.550781 41 29 C 41 28.449219 40.550781 28 40 28 Z M 44 28 C 43.449219 28 43 28.449219 43 29 C 43 29.550781 43.449219 30 44 30 C 44.550781 30 45 29.550781 45 29 C 45 28.449219 44.550781 28 44 28 Z M 48 28 C 47.449219 28 47 28.449219 47 29 C 47 29.550781 47.449219 30 48 30 C 48.550781 30 49 29.550781 49 29 C 49 28.449219 48.550781 28 48 28 Z M 52 28 C 51.449219 28 51 28.449219 51 29 C 51 29.550781 51.449219 30 52 30 C 52.550781 30 53 29.550781 53 29 C 53 28.449219 52.550781 28 52 28 Z M 56 28 C 55.449219 28 55 28.449219 55 29 C 55 29.550781 55.449219 30 56 30 C 56.550781 30 57 29.550781 57 29 C 57 28.449219 56.550781 28 56 28 Z M 60 28 C 59.449219 28 59 28.449219 59 29 C 59 29.550781 59.449219 30 60 30 C 60.550781 30 61 29.550781 61 29 C 61 28.449219 60.550781 28 60 28 Z M 64 28 C 63.449219 28 63 28.449219 63 29 C 63 29.550781 63.449219 30 64 30 C 64.550781 30 65 29.550781 65 29 C 65 28.449219 64.550781 28 64 28 Z M 68 28 C 67.449219 28 67 28.449219 67 29 C 67 29.550781 67.449219 30 68 30 C 68.550781 30 69 29.550781 69 29 C 69 28.449219 68.550781 28 68 28 Z M 16 35.839844 C 16.910156 37.113281 18.324219 38 20 38 C 21.675781 38 23.089844 37.113281 24 35.839844 C 24.910156 37.113281 26.324219 38 28 38 C 29.675781 38 31.089844 37.113281 32 35.839844 C 32.910156 37.113281 34.324219 38 36 38 C 37.675781 38 39.089844 37.113281 40 35.839844 C 40.910156 37.113281 42.324219 38 44 38 C 45.675781 38 47.089844 37.113281 48 35.839844 C 48.910156 37.113281 50.324219 38 52 38 C 53.675781 38 55.089844 37.113281 56 35.839844 C 56.910156 37.113281 58.324219 38 60 38 C 61.675781 38 63.089844 37.113281 64 35.839844 C 64.910156 37.113281 66.324219 38 68 38 L 68 69 L 61 69 L 61 64 C 61.550781 64 62 63.550781 62 63 C 62 62.449219 61.550781 62 61 62 L 61 44 L 43 44 L 43 62 C 42.449219 62 42 62.449219 42 63 C 42 63.550781 42.449219 64 43 64 L 43 69 L 12 69 L 12 38 C 13.675781 38 15.089844 37.113281 16 35.839844 Z M 19 44 L 19 57 L 35 57 L 35 44 Z M 21 46 L 33 46 L 33 55 L 21 55 Z M 45 46 L 59 46 L 59 69 L 45 69 Z M 55.5 57 C 54.671875 57 54 57.671875 54 58.5 C 54 59.328125 54.671875 60 55.5 60 C 56.328125 60 57 59.328125 57 58.5 C 57 57.671875 56.328125 57 55.5 57 Z M 15 62 C 14.449219 62 14 62.449219 14 63 C 14 63.550781 14.449219 64 15 64 C 15.550781 64 16 63.550781 16 63 C 16 62.449219 15.550781 62 15 62 Z M 19 62 C 18.449219 62 18 62.449219 18 63 C 18 63.550781 18.449219 64 19 64 C 19.550781 64 20 63.550781 20 63 C 20 62.449219 19.550781 62 19 62 Z M 23 62 C 22.449219 62 22 62.449219 22 63 C 22 63.550781 22.449219 64 23 64 C 23.550781 64 24 63.550781 24 63 C 24 62.449219 23.550781 62 23 62 Z M 27 62 C 26.449219 62 26 62.449219 26 63 C 26 63.550781 26.449219 64 27 64 C 27.550781 64 28 63.550781 28 63 C 28 62.449219 27.550781 62 27 62 Z M 31 62 C 30.449219 62 30 62.449219 30 63 C 30 63.550781 30.449219 64 31 64 C 31.550781 64 32 63.550781 32 63 C 32 62.449219 31.550781 62 31 62 Z M 35 62 C 34.449219 62 34 62.449219 34 63 C 34 63.550781 34.449219 64 35 64 C 35.550781 64 36 63.550781 36 63 C 36 62.449219 35.550781 62 35 62 Z M 39 62 C 38.449219 62 38 62.449219 38 63 C 38 63.550781 38.449219 64 39 64 C 39.550781 64 40 63.550781 40 63 C 40 62.449219 39.550781 62 39 62 Z M 65 62 C 64.449219 62 64 62.449219 64 63 C 64 63.550781 64.449219 64 65 64 C 65.550781 64 66 63.550781 66 63 C 66 62.449219 65.550781 62 65 62 Z "></path>
</g>
</svg>