<svg xmlns="http://www.w3.org/2000/svg" xmlns:xlink="http://www.w3.org/1999/xlink" fill="#6ec39d" viewBox="0 0 80 80" version="1.1">
<g id="surface1">
<path style=" " d="M 59 8 C 52.945313 8 48 12.945313 48 19 C 48 19.015625 48 19.035156 48 19.050781 C 41.308594 19.566406 36 25.175781 36 32 C 36 39.160156 41.839844 45 49 45 C 56.160156 45 62 39.160156 62 32 C 62 31.1875 61.914063 30.398438 61.769531 29.628906 C 66.496094 28.394531 70 24.097656 70 19 C 70 12.945313 65.054688 8 59 8 Z M 59 10 C 63.972656 10 68 14.027344 68 19 C 68 23.191406 65.125 26.699219 61.25 27.703125 C 60.929688 26.785156 60.503906 25.917969 59.996094 25.109375 C 59.996094 25.070313 60 25.035156 60 25 C 60 24.535156 59.679688 24.132813 59.230469 24.027344 C 57.765625 22.152344 55.804688 20.6875 53.542969 19.839844 C 53.828125 19.65625 54 19.339844 54 19 C 54 18.449219 53.550781 18 53 18 C 52.449219 18 52 18.449219 52 19 C 52 19.132813 52.027344 19.265625 52.078125 19.390625 C 51.40625 19.222656 50.710938 19.105469 50 19.050781 C 50 19.035156 50 19.015625 50 19 C 50 14.027344 54.027344 10 59 10 Z M 59 12 C 58.449219 12 58 12.449219 58 13 C 58 13.550781 58.449219 14 59 14 C 59.550781 14 60 13.550781 60 13 C 60 12.449219 59.550781 12 59 12 Z M 54.769531 13.757813 C 54.5 13.753906 54.242188 13.859375 54.050781 14.050781 C 53.660156 14.441406 53.660156 15.074219 54.050781 15.464844 C 54.441406 15.855469 55.074219 15.855469 55.464844 15.464844 C 55.855469 15.074219 55.855469 14.441406 55.464844 14.050781 C 55.28125 13.867188 55.03125 13.761719 54.769531 13.757813 Z M 63.257813 13.761719 C 62.988281 13.753906 62.726563 13.859375 62.535156 14.050781 C 62.347656 14.238281 62.242188 14.492188 62.242188 14.757813 C 62.242188 15.023438 62.347656 15.277344 62.535156 15.46875 C 62.925781 15.855469 63.558594 15.855469 63.949219 15.464844 C 64.339844 15.074219 64.339844 14.441406 63.949219 14.050781 C 63.765625 13.867188 63.515625 13.761719 63.257813 13.761719 Z M 65 18 C 64.449219 18 64 18.449219 64 19 C 64 19.550781 64.449219 20 65 20 C 65.550781 20 66 19.550781 66 19 C 66 18.449219 65.550781 18 65 18 Z M 49 21 C 55.074219 21 60 25.925781 60 32 C 60 38.074219 55.074219 43 49 43 C 42.925781 43 38 38.074219 38 32 C 38 25.925781 42.925781 21 49 21 Z M 63.253906 22.246094 C 62.984375 22.238281 62.722656 22.34375 62.53125 22.535156 C 62.144531 22.929688 62.144531 23.5625 62.535156 23.953125 C 62.925781 24.339844 63.558594 24.339844 63.949219 23.953125 C 64.339844 23.5625 64.339844 22.925781 63.949219 22.535156 C 63.765625 22.351563 63.515625 22.246094 63.253906 22.246094 Z M 49 23 C 48.449219 23 48 23.449219 48 24 C 48 24.550781 48.449219 25 49 25 C 49.550781 25 50 24.550781 50 24 C 50 23.449219 49.550781 23 49 23 Z M 44.972656 24.074219 C 44.808594 24.074219 44.644531 24.121094 44.5 24.203125 C 44.019531 24.480469 43.855469 25.09375 44.132813 25.570313 C 44.410156 26.046875 45.019531 26.214844 45.5 25.9375 C 45.726563 25.804688 45.894531 25.585938 45.964844 25.328125 C 46.035156 25.074219 46 24.800781 45.863281 24.570313 C 45.683594 24.253906 45.339844 24.0625 44.972656 24.074219 Z M 52.953125 24.074219 C 52.613281 24.089844 52.304688 24.277344 52.132813 24.574219 C 52 24.800781 51.964844 25.074219 52.03125 25.332031 C 52.101563 25.589844 52.269531 25.808594 52.5 25.9375 C 52.976563 26.214844 53.589844 26.050781 53.863281 25.574219 C 54.140625 25.09375 53.976563 24.484375 53.5 24.207031 C 53.332031 24.109375 53.144531 24.066406 52.953125 24.074219 Z M 55.902344 27 C 55.734375 27.003906 55.570313 27.050781 55.425781 27.132813 C 55.195313 27.265625 55.027344 27.484375 54.960938 27.742188 C 54.890625 27.996094 54.925781 28.269531 55.0625 28.5 C 55.335938 28.976563 55.949219 29.140625 56.425781 28.863281 C 56.902344 28.589844 57.070313 27.976563 56.792969 27.5 C 56.609375 27.183594 56.269531 26.992188 55.902344 27 Z M 42.023438 27 C 41.683594 27.019531 41.375 27.207031 41.203125 27.5 C 41.070313 27.730469 41.035156 28.003906 41.105469 28.257813 C 41.171875 28.515625 41.339844 28.734375 41.570313 28.867188 C 41.800781 29 42.074219 29.035156 42.328125 28.96875 C 42.585938 28.898438 42.804688 28.730469 42.9375 28.5 C 43.214844 28.023438 43.046875 27.410156 42.570313 27.136719 C 42.40625 27.039063 42.214844 26.992188 42.023438 27 Z M 41 31 C 40.449219 31 40 31.449219 40 32 C 40 32.550781 40.449219 33 41 33 C 41.550781 33 42 32.550781 42 32 C 42 31.449219 41.550781 31 41 31 Z M 57 31 C 56.449219 31 56 31.449219 56 32 C 56 32.550781 56.449219 33 57 33 C 57.550781 33 58 32.550781 58 32 C 58 31.449219 57.550781 31 57 31 Z M 42.046875 35 C 41.878906 35.003906 41.714844 35.050781 41.570313 35.132813 C 41.339844 35.265625 41.171875 35.484375 41.105469 35.742188 C 41.035156 35.996094 41.070313 36.269531 41.203125 36.5 C 41.480469 36.976563 42.09375 37.140625 42.570313 36.863281 C 43.046875 36.589844 43.214844 35.976563 42.9375 35.5 C 42.753906 35.183594 42.414063 34.992188 42.046875 35 Z M 55.878906 35.003906 C 55.539063 35.019531 55.230469 35.207031 55.0625 35.5 C 54.785156 35.980469 54.949219 36.589844 55.425781 36.867188 C 55.90625 37.144531 56.515625 36.980469 56.792969 36.5 C 57.070313 36.023438 56.90625 35.414063 56.425781 35.136719 C 56.261719 35.039063 56.070313 34.996094 55.878906 35.003906 Z M 52.972656 37.925781 C 52.808594 37.929688 52.644531 37.976563 52.5 38.0625 C 52.269531 38.191406 52.101563 38.410156 52.03125 38.667969 C 51.964844 38.925781 52 39.199219 52.132813 39.425781 C 52.410156 39.90625 53.019531 40.070313 53.5 39.792969 C 53.976563 39.515625 54.140625 38.90625 53.863281 38.425781 C 53.683594 38.109375 53.339844 37.917969 52.972656 37.925781 Z M 44.953125 37.929688 C 44.609375 37.945313 44.300781 38.132813 44.132813 38.429688 C 43.855469 38.90625 44.019531 39.519531 44.5 39.796875 C 44.726563 39.929688 45 39.964844 45.257813 39.894531 C 45.515625 39.828125 45.734375 39.660156 45.863281 39.429688 C 46 39.199219 46.035156 38.925781 45.964844 38.671875 C 45.894531 38.414063 45.726563 38.195313 45.5 38.0625 C 45.332031 37.964844 45.140625 37.921875 44.953125 37.929688 Z M 23 39 C 22.019531 39 21.082031 39.1875 20.21875 39.511719 C 20.1875 39.515625 20.226563 39.496094 20.113281 39.53125 L 20.140625 39.523438 C 17.976563 40.179688 7.734375 43.035156 7.734375 43.035156 C 7.375 43.121094 7.09375 43.394531 7 43.746094 C 6.902344 44.101563 7.007813 44.480469 7.273438 44.734375 C 7.535156 44.984375 7.917969 45.074219 8.265625 44.964844 C 8.265625 44.964844 18.28125 42.175781 20.652344 41.457031 C 20.722656 41.445313 20.792969 41.429688 20.859375 41.402344 C 21.53125 41.144531 22.246094 41 23 41 C 24.097656 41 25.117188 41.296875 26.003906 41.8125 C 26.039063 41.835938 26.078125 41.851563 26.113281 41.867188 C 26.121094 41.871094 26.128906 41.875 26.136719 41.878906 C 32.4375 44.855469 45.238281 51.261719 45.269531 51.28125 L 45.277344 51.28125 C 45.214844 51.25 45.222656 51.253906 45.34375 51.332031 C 45.367188 51.347656 45.390625 51.363281 45.410156 51.375 C 46.359375 51.886719 47 52.855469 47 54 C 47 54.601563 46.824219 55.148438 46.519531 55.621094 C 45.640625 56.988281 43.9375 57.277344 42.347656 56.511719 C 42.328125 56.503906 42.308594 56.496094 42.292969 56.484375 L 41.609375 56.207031 C 41.277344 56.058594 40.886719 56.105469 40.597656 56.328125 C 40.308594 56.546875 40.160156 56.910156 40.214844 57.269531 C 40.265625 57.628906 40.511719 57.933594 40.855469 58.0625 L 41.535156 58.339844 L 41.480469 58.3125 C 43.492188 59.28125 45.949219 59.0625 47.519531 57.53125 L 48.609375 58.277344 C 48.886719 58.46875 49.246094 58.503906 49.558594 58.375 L 65.964844 51.59375 L 65.546875 50.761719 C 65.785156 51.234375 66.347656 51.441406 66.832031 51.234375 C 67.191406 51.082031 67.582031 51 68 51 C 69.667969 51 71 52.332031 71 54 C 71 55.140625 70.363281 56.105469 69.425781 56.621094 C 68.972656 56.867188 68.78125 57.425781 68.996094 57.902344 L 68.621094 57.058594 L 48.90625 67.523438 C 48.9375 67.507813 48.910156 67.519531 48.863281 67.535156 C 48.816406 67.550781 48.769531 67.566406 48.726563 67.589844 C 48.1875 67.847656 47.613281 68 47 68 C 46.410156 68 45.855469 67.863281 45.339844 67.625 C 45.316406 67.617188 45.292969 67.605469 45.269531 67.597656 C 45.195313 67.570313 45.183594 67.5625 45.234375 67.589844 L 20.390625 57.078125 C 20.164063 56.984375 19.914063 56.972656 19.683594 57.050781 L 7.683594 61.050781 C 7.160156 61.226563 6.875 61.792969 7.050781 62.316406 C 7.226563 62.839844 7.792969 63.125 8.316406 62.949219 L 19.957031 59.066406 L 44.429688 69.417969 C 44.582031 69.488281 44.613281 69.488281 44.578125 69.472656 C 45.308594 69.800781 46.128906 70 47 70 C 47.941406 70 48.820313 69.765625 49.59375 69.390625 C 49.652344 69.371094 49.707031 69.359375 49.78125 69.320313 C 49.792969 69.316406 49.804688 69.308594 49.8125 69.304688 L 70.378906 58.390625 C 70.546875 58.300781 70.683594 58.167969 70.777344 58.003906 C 72.066406 57.105469 73 55.695313 73 54 C 73 51.25 70.75 49 68 49 C 67.453125 49 66.945313 49.148438 66.453125 49.3125 L 66.449219 49.3125 C 66.316406 49.3125 66.183594 49.335938 66.0625 49.390625 L 49.292969 56.320313 L 48.46875 55.761719 C 48.699219 55.191406 49 54.648438 49 54 C 49 52.101563 47.917969 50.453125 46.359375 49.613281 L 46.429688 49.65625 C 46.464844 49.675781 46.398438 49.613281 46.21875 49.515625 C 46.210938 49.511719 46.203125 49.507813 46.191406 49.503906 C 46.191406 49.503906 33.328125 43.058594 26.96875 40.058594 C 26.960938 40.054688 26.953125 40.050781 26.949219 40.046875 C 26.835938 40 26.828125 40 26.878906 40.019531 C 25.730469 39.378906 24.410156 39 23 39 Z M 49 39 C 48.449219 39 48 39.449219 48 40 C 48 40.550781 48.449219 41 49 41 C 49.550781 41 50 40.550781 50 40 C 50 39.449219 49.550781 39 49 39 Z M 29 52 C 28.449219 52 28 52.449219 28 53 C 28 53.550781 28.449219 54 29 54 C 29.550781 54 30 53.550781 30 53 C 30 52.449219 29.550781 52 29 52 Z M 32 53 C 31.449219 53 31 53.449219 31 54 C 31 54.550781 31.449219 55 32 55 C 32.550781 55 33 54.550781 33 54 C 33 53.449219 32.550781 53 32 53 Z M 35 54 C 34.449219 54 34 54.449219 34 55 C 34 55.550781 34.449219 56 35 56 C 35.550781 56 36 55.550781 36 55 C 36 54.449219 35.550781 54 35 54 Z M 38 55 C 37.449219 55 37 55.449219 37 56 C 37 56.550781 37.449219 57 38 57 C 38.550781 57 39 56.550781 39 56 C 39 55.449219 38.550781 55 38 55 Z "></path>
</g>
</svg>