<svg xmlns="http://www.w3.org/2000/svg" fill="#6ec39d" viewBox="0 0 80 80">
    <path style="line-height:normal;text-indent:0;text-align:start;text-decoration-line:none;text-decoration-style:solid;text-decoration-color:#000;text-transform:none;block-progression:tb;isolation:auto;mix-blend-mode:normal" d="M 15 10 C 12.250484 10 10 12.250484 10 15 L 10 65 C 10 67.749516 12.250484 70 15 70 L 65 70 C 67.749516 70 70 67.749516 70 65 L 70 15 C 70 12.250484 67.749516 10 65 10 L 15 10 z M 15 12 L 65 12 C 66.668484 12 68 13.331516 68 15 L 68 65 C 68 66.668484 66.668484 68 65 68 L 15 68 C 13.331516 68 12 66.668484 12 65 L 12 15 C 12 13.331516 13.331516 12 15 12 z M 18 17 A 1 1 0 0 0 17 18 A 1 1 0 0 0 18 19 A 1 1 0 0 0 19 18 A 1 1 0 0 0 18 17 z M 22 17 A 1 1 0 0 0 21 18 A 1 1 0 0 0 22 19 A 1 1 0 0 0 23 18 A 1 1 0 0 0 22 17 z M 26 17 A 1 1 0 0 0 25 18 A 1 1 0 0 0 26 19 A 1 1 0 0 0 27 18 A 1 1 0 0 0 26 17 z M 30 17 A 1 1 0 0 0 29 18 A 1 1 0 0 0 30 19 A 1 1 0 0 0 31 18 A 1 1 0 0 0 30 17 z M 34 17 A 1 1 0 0 0 33 18 A 1 1 0 0 0 34 19 A 1 1 0 0 0 35 18 A 1 1 0 0 0 34 17 z M 38 17 A 1 1 0 0 0 37 18 A 1 1 0 0 0 38 19 A 1 1 0 0 0 39 18 A 1 1 0 0 0 38 17 z M 42 17 A 1 1 0 0 0 41 18 A 1 1 0 0 0 42 19 A 1 1 0 0 0 43 18 A 1 1 0 0 0 42 17 z M 46 17 A 1 1 0 0 0 45 18 A 1 1 0 0 0 46 19 A 1 1 0 0 0 47 18 A 1 1 0 0 0 46 17 z M 50 17 A 1 1 0 0 0 49 18 A 1 1 0 0 0 50 19 A 1 1 0 0 0 51 18 A 1 1 0 0 0 50 17 z M 54 17 A 1 1 0 0 0 53 18 A 1 1 0 0 0 54 19 A 1 1 0 0 0 55 18 A 1 1 0 0 0 54 17 z M 58 17 A 1 1 0 0 0 57 18 A 1 1 0 0 0 58 19 A 1 1 0 0 0 59 18 A 1 1 0 0 0 58 17 z M 62 17 A 1 1 0 0 0 61 18 A 1 1 0 0 0 62 19 A 1 1 0 0 0 63 18 A 1 1 0 0 0 62 17 z M 18 21 A 1 1 0 0 0 17 22 A 1 1 0 0 0 18 23 A 1 1 0 0 0 19 22 A 1 1 0 0 0 18 21 z M 62 21 A 1 1 0 0 0 61 22 A 1 1 0 0 0 62 23 A 1 1 0 0 0 63 22 A 1 1 0 0 0 62 21 z M 40 22 C 37.802706 22 36 23.802706 36 26 C 36 27.850301 37.284214 29.405591 39 29.855469 L 39 36.101562 C 37.501071 36.409227 36.259406 37.404217 35.574219 38.728516 L 29.966797 36.326172 C 29.975913 36.216794 30 36.111598 30 36 C 30 33.802706 28.197294 32 26 32 C 23.802706 32 22 33.802706 22 36 C 22 38.197294 23.802706 40 26 40 C 27.375473 40 28.595584 39.292009 29.316406 38.224609 L 35.015625 40.667969 C 35.008286 40.778113 35 40.888083 35 41 C 35 42.344976 35.544051 43.565665 36.416016 44.466797 L 32.46875 50.291016 C 32.012583 50.108654 31.518656 50 31 50 C 28.802706 50 27 51.802706 27 54 C 27 56.197294 28.802706 58 31 58 C 33.197294 58 35 56.197294 35 54 C 35 53.042923 34.643835 52.173412 34.076172 51.482422 L 38.058594 45.605469 C 38.65623 45.859408 39.312605 46 40 46 C 40.687395 46 41.34377 45.859408 41.941406 45.605469 L 45.923828 51.482422 C 45.356165 52.173412 45 53.042923 45 54 C 45 56.197294 46.802706 58 49 58 C 51.197294 58 53 56.197294 53 54 C 53 51.802706 51.197294 50 49 50 C 48.481344 50 47.987417 50.108654 47.53125 50.291016 L 43.583984 44.466797 C 44.455949 43.565665 45 42.344976 45 41 C 45 40.888083 44.991714 40.778113 44.984375 40.667969 L 50.681641 38.224609 C 51.402395 39.292441 52.624195 40 54 40 C 56.197294 40 58 38.197294 58 36 C 58 33.802706 56.197294 32 54 32 C 51.802706 32 50 33.802706 50 36 C 50 36.111598 50.024087 36.216794 50.033203 36.326172 L 44.425781 38.728516 C 43.740594 37.404217 42.498929 36.409227 41 36.101562 L 41 29.855469 C 42.715786 29.405591 44 27.850301 44 26 C 44 23.802706 42.197294 22 40 22 z M 40 24 C 41.116414 24 42 24.883586 42 26 C 42 27.116414 41.116414 28 40 28 C 38.883586 28 38 27.116414 38 26 C 38 24.883586 38.883586 24 40 24 z M 18 25 A 1 1 0 0 0 17 26 A 1 1 0 0 0 18 27 A 1 1 0 0 0 19 26 A 1 1 0 0 0 18 25 z M 62 25 A 1 1 0 0 0 61 26 A 1 1 0 0 0 62 27 A 1 1 0 0 0 63 26 A 1 1 0 0 0 62 25 z M 18 29 A 1 1 0 0 0 17 30 A 1 1 0 0 0 18 31 A 1 1 0 0 0 19 30 A 1 1 0 0 0 18 29 z M 62 29 A 1 1 0 0 0 61 30 A 1 1 0 0 0 62 31 A 1 1 0 0 0 63 30 A 1 1 0 0 0 62 29 z M 18 33 A 1 1 0 0 0 17 34 A 1 1 0 0 0 18 35 A 1 1 0 0 0 19 34 A 1 1 0 0 0 18 33 z M 62 33 A 1 1 0 0 0 61 34 A 1 1 0 0 0 62 35 A 1 1 0 0 0 63 34 A 1 1 0 0 0 62 33 z M 26 34 C 27.116414 34 28 34.883586 28 36 C 28 37.116414 27.116414 38 26 38 C 24.883586 38 24 37.116414 24 36 C 24 34.883586 24.883586 34 26 34 z M 54 34 C 55.116414 34 56 34.883586 56 36 C 56 37.116414 55.116414 38 54 38 C 52.883586 38 52 37.116414 52 36 C 52 34.883586 52.883586 34 54 34 z M 18 37 A 1 1 0 0 0 17 38 A 1 1 0 0 0 18 39 A 1 1 0 0 0 19 38 A 1 1 0 0 0 18 37 z M 62 37 A 1 1 0 0 0 61 38 A 1 1 0 0 0 62 39 A 1 1 0 0 0 63 38 A 1 1 0 0 0 62 37 z M 40 38 C 41.668699 38 43 39.331301 43 41 C 43 42.668699 41.668699 44 40 44 C 38.331301 44 37 42.668699 37 41 C 37 39.331301 38.331301 38 40 38 z M 18 41 A 1 1 0 0 0 17 42 A 1 1 0 0 0 18 43 A 1 1 0 0 0 19 42 A 1 1 0 0 0 18 41 z M 62 41 A 1 1 0 0 0 61 42 A 1 1 0 0 0 62 43 A 1 1 0 0 0 63 42 A 1 1 0 0 0 62 41 z M 18 45 A 1 1 0 0 0 17 46 A 1 1 0 0 0 18 47 A 1 1 0 0 0 19 46 A 1 1 0 0 0 18 45 z M 62 45 A 1 1 0 0 0 61 46 A 1 1 0 0 0 62 47 A 1 1 0 0 0 63 46 A 1 1 0 0 0 62 45 z M 18 49 A 1 1 0 0 0 17 50 A 1 1 0 0 0 18 51 A 1 1 0 0 0 19 50 A 1 1 0 0 0 18 49 z M 62 49 A 1 1 0 0 0 61 50 A 1 1 0 0 0 62 51 A 1 1 0 0 0 63 50 A 1 1 0 0 0 62 49 z M 31 52 C 32.116414 52 33 52.883586 33 54 C 33 55.116414 32.116414 56 31 56 C 29.883586 56 29 55.116414 29 54 C 29 52.883586 29.883586 52 31 52 z M 49 52 C 50.116414 52 51 52.883586 51 54 C 51 55.116414 50.116414 56 49 56 C 47.883586 56 47 55.116414 47 54 C 47 52.883586 47.883586 52 49 52 z M 18 53 A 1 1 0 0 0 17 54 A 1 1 0 0 0 18 55 A 1 1 0 0 0 19 54 A 1 1 0 0 0 18 53 z M 62 53 A 1 1 0 0 0 61 54 A 1 1 0 0 0 62 55 A 1 1 0 0 0 63 54 A 1 1 0 0 0 62 53 z M 18 57 A 1 1 0 0 0 17 58 A 1 1 0 0 0 18 59 A 1 1 0 0 0 19 58 A 1 1 0 0 0 18 57 z M 62 57 A 1 1 0 0 0 61 58 A 1 1 0 0 0 62 59 A 1 1 0 0 0 63 58 A 1 1 0 0 0 62 57 z M 18 61 A 1 1 0 0 0 17 62 A 1 1 0 0 0 18 63 A 1 1 0 0 0 19 62 A 1 1 0 0 0 18 61 z M 22 61 A 1 1 0 0 0 21 62 A 1 1 0 0 0 22 63 A 1 1 0 0 0 23 62 A 1 1 0 0 0 22 61 z M 26 61 A 1 1 0 0 0 25 62 A 1 1 0 0 0 26 63 A 1 1 0 0 0 27 62 A 1 1 0 0 0 26 61 z M 30 61 A 1 1 0 0 0 29 62 A 1 1 0 0 0 30 63 A 1 1 0 0 0 31 62 A 1 1 0 0 0 30 61 z M 34 61 A 1 1 0 0 0 33 62 A 1 1 0 0 0 34 63 A 1 1 0 0 0 35 62 A 1 1 0 0 0 34 61 z M 38 61 A 1 1 0 0 0 37 62 A 1 1 0 0 0 38 63 A 1 1 0 0 0 39 62 A 1 1 0 0 0 38 61 z M 42 61 A 1 1 0 0 0 41 62 A 1 1 0 0 0 42 63 A 1 1 0 0 0 43 62 A 1 1 0 0 0 42 61 z M 46 61 A 1 1 0 0 0 45 62 A 1 1 0 0 0 46 63 A 1 1 0 0 0 47 62 A 1 1 0 0 0 46 61 z M 50 61 A 1 1 0 0 0 49 62 A 1 1 0 0 0 50 63 A 1 1 0 0 0 51 62 A 1 1 0 0 0 50 61 z M 54 61 A 1 1 0 0 0 53 62 A 1 1 0 0 0 54 63 A 1 1 0 0 0 55 62 A 1 1 0 0 0 54 61 z M 58 61 A 1 1 0 0 0 57 62 A 1 1 0 0 0 58 63 A 1 1 0 0 0 59 62 A 1 1 0 0 0 58 61 z M 62 61 A 1 1 0 0 0 61 62 A 1 1 0 0 0 62 63 A 1 1 0 0 0 63 62 A 1 1 0 0 0 62 61 z"></path>
</svg>