<svg xmlns="http://www.w3.org/2000/svg" xmlns:xlink="http://www.w3.org/1999/xlink" fill="#6ec39d" viewBox="0 0 80 80" version="1.1">
<g id="surface1">
<path style=" " d="M 22 9 C 18.144531 9 15 12.144531 15 16 C 15 19.855469 18.144531 23 22 23 C 25.855469 23 29 19.855469 29 16 C 29 12.144531 25.855469 9 22 9 Z M 22 11 C 24.773438 11 27 13.226563 27 16 C 27 18.773438 24.773438 21 22 21 C 19.226563 21 17 18.773438 17 16 C 17 13.226563 19.226563 11 22 11 Z M 46 12 L 46 15 L 31 15 L 31 17 L 69 17 L 69 51 L 32 51 L 32 53 L 46 53 L 46 54.535156 L 38.40625 63.042969 C 38.273438 63.011719 38.136719 63 38 63 C 36.894531 63 36 63.894531 36 65 C 36 66.105469 36.894531 67 38 67 C 39.105469 67 40 66.105469 40 65 C 40 64.789063 39.964844 64.578125 39.898438 64.375 L 46 57.542969 L 46 60 L 48 60 L 48 57.671875 L 54.09375 64.390625 C 54.03125 64.585938 54 64.792969 54 65 C 54 66.105469 54.894531 67 56 67 C 57.105469 67 58 66.105469 58 65 C 58 63.894531 57.105469 63 56 63 C 55.859375 63 55.714844 63.015625 55.578125 63.046875 L 48 54.691406 L 48 53 L 71 53 L 71 15 L 48 15 L 48 12 Z M 65 19 C 64.449219 19 64 19.449219 64 20 C 64 20.550781 64.449219 21 65 21 C 65.550781 21 66 20.550781 66 20 C 66 19.449219 65.550781 19 65 19 Z M 65 23 C 64.449219 23 64 23.449219 64 24 C 64 24.550781 64.449219 25 65 25 C 65.550781 25 66 24.550781 66 24 C 66 23.449219 65.550781 23 65 23 Z M 15 25 C 11.699219 25 9 27.699219 9 31 L 9 47.5 C 9 49.421875 10.578125 51 12.5 51 C 13.042969 51 13.539063 50.851563 14 50.625 L 14 67.5 C 14 69.421875 15.578125 71 17.5 71 C 19.421875 71 21 69.421875 21 67.5 L 21 53 L 23 53 L 23 67.5 C 23 69.421875 24.578125 71 26.5 71 C 28.421875 71 30 69.421875 30 67.5 L 30 32 L 46.5 32 C 48.421875 32 50 30.421875 50 28.5 C 50 26.578125 48.421875 25 46.5 25 L 24.433594 25 L 22 29.058594 L 19.566406 25 Z M 15 27 L 18.433594 27 L 22 32.941406 L 25.566406 27 L 46.5 27 C 47.339844 27 48 27.660156 48 28.5 C 48 29.339844 47.339844 30 46.5 30 L 28 30 L 28 67.5 C 28 68.339844 27.339844 69 26.5 69 C 25.660156 69 25 68.339844 25 67.5 L 25 51 L 19 51 L 19 67.5 C 19 68.339844 18.339844 69 17.5 69 C 16.660156 69 16 68.339844 16 67.5 L 16 47.5 L 14 47.5 C 14 48.339844 13.339844 49 12.5 49 C 11.660156 49 11 48.339844 11 47.5 L 11 31 C 11 28.78125 12.78125 27 15 27 Z M 65 27 C 64.449219 27 64 27.449219 64 28 C 64 28.550781 64.449219 29 65 29 C 65.550781 29 66 28.550781 66 28 C 66 27.449219 65.550781 27 65 27 Z M 65 31 C 64.449219 31 64 31.449219 64 32 C 64 32.550781 64.449219 33 65 33 C 65.550781 33 66 32.550781 66 32 C 66 31.449219 65.550781 31 65 31 Z M 15 32 C 14.449219 32 14 32.449219 14 33 C 14 33.550781 14.449219 34 15 34 C 15.550781 34 16 33.550781 16 33 C 16 32.449219 15.550781 32 15 32 Z M 65 35 C 64.449219 35 64 35.449219 64 36 C 64 36.550781 64.449219 37 65 37 C 65.550781 37 66 36.550781 66 36 C 66 35.449219 65.550781 35 65 35 Z M 15 36 C 14.449219 36 14 36.449219 14 37 C 14 37.550781 14.449219 38 15 38 C 15.550781 38 16 37.550781 16 37 C 16 36.449219 15.550781 36 15 36 Z M 65 39 C 64.449219 39 64 39.449219 64 40 C 64 40.550781 64.449219 41 65 41 C 65.550781 41 66 40.550781 66 40 C 66 39.449219 65.550781 39 65 39 Z M 15 40 C 14.449219 40 14 40.449219 14 41 C 14 41.550781 14.449219 42 15 42 C 15.550781 42 16 41.550781 16 41 C 16 40.449219 15.550781 40 15 40 Z M 65 43 C 64.449219 43 64 43.449219 64 44 C 64 44.550781 64.449219 45 65 45 C 65.550781 45 66 44.550781 66 44 C 66 43.449219 65.550781 43 65 43 Z M 15 44 C 14.449219 44 14 44.449219 14 45 C 14 45.550781 14.449219 46 15 46 C 15.550781 46 16 45.550781 16 45 C 16 44.449219 15.550781 44 15 44 Z M 65 47 C 64.449219 47 64 47.449219 64 48 C 64 48.550781 64.449219 49 65 49 C 65.550781 49 66 48.550781 66 48 C 66 47.449219 65.550781 47 65 47 Z "></path>
</g>
</svg>