<svg xmlns="http://www.w3.org/2000/svg" viewBox="0 0 80 80" fill="#6ec39d">
    <path style="line-height:normal;text-indent:0;text-align:start;text-decoration-line:none;text-decoration-style:solid;text-decoration-color:#000;text-transform:none;block-progression:tb;isolation:auto;mix-blend-mode:normal" d="M 40 7 C 21.786448 7 7 21.786448 7 40 C 7 58.213552 21.786448 73 40 73 C 58.213552 73 73 58.213552 73 40 C 73 21.786448 58.213552 7 40 7 z M 40 9 A 1 1 0 0 0 39 10 A 1 1 0 0 0 40 11 A 1 1 0 0 0 41 10 A 1 1 0 0 0 40.070312 9.0019531 C 57.170391 9.0400728 71 22.890921 71 40 C 71 57.132672 57.132672 71 40 71 C 22.867328 71 9 57.132672 9 40 C 9 28.690701 15.044585 18.806805 24.080078 13.392578 A 1 1 0 0 0 25 14 A 1 1 0 0 0 26 13 A 1 1 0 0 0 25.822266 12.429688 C 28.075698 11.269483 30.488088 10.378981 33.021484 9.796875 A 1 1 0 0 0 33 10 A 1 1 0 0 0 34 11 A 1 1 0 0 0 35 10 A 1 1 0 0 0 34.826172 9.4375 C 36.509072 9.1551599 38.236329 9 40 9 z M 31 12 A 1 1 0 0 0 30 13 A 1 1 0 0 0 31 14 A 1 1 0 0 0 32 13 A 1 1 0 0 0 31 12 z M 37 12 A 1 1 0 0 0 36 13 A 1 1 0 0 0 37 14 A 1 1 0 0 0 38 13 A 1 1 0 0 0 37 12 z M 22 15 A 1 1 0 0 0 21 16 A 1 1 0 0 0 22 17 A 1 1 0 0 0 23 16 A 1 1 0 0 0 22 15 z M 28 15 A 1 1 0 0 0 27 16 A 1 1 0 0 0 28 17 A 1 1 0 0 0 29 16 A 1 1 0 0 0 28 15 z M 34 15 A 1 1 0 0 0 33 16 A 1 1 0 0 0 34 17 A 1 1 0 0 0 35 16 A 1 1 0 0 0 34 15 z M 40 15 A 1 1 0 0 0 39 16 A 1 1 0 0 0 40 17 A 1 1 0 0 0 41 16 A 1 1 0 0 0 40 15 z M 19 18 A 1 1 0 0 0 18 19 A 1 1 0 0 0 19 20 A 1 1 0 0 0 20 19 A 1 1 0 0 0 19 18 z M 25 18 A 1 1 0 0 0 24 19 A 1 1 0 0 0 25 20 A 1 1 0 0 0 26 19 A 1 1 0 0 0 25 18 z M 31 18 A 1 1 0 0 0 30 19 A 1 1 0 0 0 31 20 A 1 1 0 0 0 32 19 A 1 1 0 0 0 31 18 z M 37 18 A 1 1 0 0 0 36 19 A 1 1 0 0 0 37 20 A 1 1 0 0 0 38 19 A 1 1 0 0 0 37 18 z M 28 21 A 1 1 0 0 0 27 22 A 1 1 0 0 0 28 23 A 1 1 0 0 0 29 22 A 1 1 0 0 0 28 21 z M 34 21 A 1 1 0 0 0 33 22 A 1 1 0 0 0 34 23 A 1 1 0 0 0 35 22 A 1 1 0 0 0 34 21 z M 40 21 A 1 1 0 0 0 39 22 A 1 1 0 0 0 40 23 A 1 1 0 0 0 41 22 A 1 1 0 0 0 40 21 z M 22.707031 21.292969 L 21.292969 22.707031 L 36.568359 37.982422 C 36.215438 38.577774 36 39.262502 36 40 C 36 42.197294 37.802706 44 40 44 C 42.197294 44 44 42.197294 44 40 C 44 39.262502 43.784562 38.577774 43.431641 37.982422 L 54.707031 26.707031 L 53.292969 25.292969 L 42.017578 36.568359 C 41.422226 36.215438 40.737498 36 40 36 C 39.262502 36 38.577774 36.215438 37.982422 36.568359 L 22.707031 21.292969 z M 31 24 A 1 1 0 0 0 30 25 A 1 1 0 0 0 31 26 A 1 1 0 0 0 32 25 A 1 1 0 0 0 31 24 z M 37 24 A 1 1 0 0 0 36 25 A 1 1 0 0 0 37 26 A 1 1 0 0 0 38 25 A 1 1 0 0 0 37 24 z M 34 27 A 1 1 0 0 0 33 28 A 1 1 0 0 0 34 29 A 1 1 0 0 0 35 28 A 1 1 0 0 0 34 27 z M 40 27 A 1 1 0 0 0 39 28 A 1 1 0 0 0 40 29 A 1 1 0 0 0 41 28 A 1 1 0 0 0 40 27 z M 37 30 A 1 1 0 0 0 36 31 A 1 1 0 0 0 37 32 A 1 1 0 0 0 38 31 A 1 1 0 0 0 37 30 z M 40 33 A 1 1 0 0 0 39 34 A 1 1 0 0 0 40 35 A 1 1 0 0 0 41 34 A 1 1 0 0 0 40 33 z M 13 38 A 2 2 0 0 0 11 40 A 2 2 0 0 0 13 42 A 2 2 0 0 0 15 40 A 2 2 0 0 0 13 38 z M 40 38 C 41.116414 38 42 38.883586 42 40 C 42 41.116414 41.116414 42 40 42 C 38.883586 42 38 41.116414 38 40 C 38 38.883586 38.883586 38 40 38 z M 67 38 A 2 2 0 0 0 65 40 A 2 2 0 0 0 67 42 A 2 2 0 0 0 69 40 A 2 2 0 0 0 67 38 z M 18 39 A 1 1 0 0 0 17 40 A 1 1 0 0 0 18 41 A 1 1 0 0 0 19 40 A 1 1 0 0 0 18 39 z M 62 39 A 1 1 0 0 0 61 40 A 1 1 0 0 0 62 41 A 1 1 0 0 0 63 40 A 1 1 0 0 0 62 39 z M 40 61 A 1 1 0 0 0 39 62 A 1 1 0 0 0 40 63 A 1 1 0 0 0 41 62 A 1 1 0 0 0 40 61 z M 40 65 A 2 2 0 0 0 38 67 A 2 2 0 0 0 40 69 A 2 2 0 0 0 42 67 A 2 2 0 0 0 40 65 z"></path>
</svg>