<?xml version="1.0" encoding="utf-8"?>
<!-- Generator: Adobe Illustrator 21.0.2, SVG Export Plug-In . SVG Version: 6.00 Build 0)  -->
<svg version="1.1" id="Layer_1" xmlns="http://www.w3.org/2000/svg" xmlns:xlink="http://www.w3.org/1999/xlink" x="0px" y="0px"
	 viewBox="0 0 24 24" style="enable-background:new 0 0 24 24;" xml:space="preserve">
<style type="text/css">
	.st0{fill:#FFFFFF;}
</style>
<g id="ic_x5F_dashboard">
	<g>
		<path class="st0" d="M9,3v6H3V3H9 M10,2H2v8h8V2L10,2z"/>
	</g>
	<g>
		<path class="st0" d="M21,3v6h-6V3H21 M22,2h-8v8h8V2L22,2z"/>
	</g>
	<polygon class="st0" points="4,4 8,4 5,5 4,8 	"/>
	<g>
		<path class="st0" d="M21,15v6h-6v-6H21 M22,14h-8v8h8V14L22,14z"/>
	</g>
	<polygon class="st0" points="16,16 20,16 17,17 16,20 	"/>
	<g>
		<path class="st0" d="M9,15v6H3v-6H9 M10,14H2v8h8V14L10,14z"/>
	</g>
</g>
</svg>
