<?xml version="1.0" encoding="utf-8"?>
<!-- Generator: Adobe Illustrator 21.0.2, SVG Export Plug-In . SVG Version: 6.00 Build 0)  -->
<svg version="1.1" id="Layer_1" xmlns="http://www.w3.org/2000/svg" xmlns:xlink="http://www.w3.org/1999/xlink" x="0px" y="0px"
	 viewBox="0 0 24 24" style="enable-background:new 0 0 24 24;" xml:space="preserve">
<style type="text/css">
	.st0{fill:#FFFFFF;}
</style>
<g id="ic_x5F_delivery_x5F_expenses">
	<g>
		<path class="st0" d="M12,1c6.1,0,11,4.9,11,11s-4.9,11-11,11S1,18.1,1,12S5.9,1,12,1 M12,0C5.4,0,0,5.4,0,12s5.4,12,12,12
			s12-5.4,12-12S18.6,0,12,0L12,0z"/>
	</g>
	<g>
		<path class="st0" d="M13,3.1C12.6,3,12.3,3,12,3c-5,0-9,4-9,9c0,0.3,0,0.6,0.1,1C3.5,7.7,7.7,3.5,13,3.1z"/>
	</g>
	<polygon class="st0" points="13,15 13,9 13,8 12,8 10,8 10,9 12,9 12,15 10,15 10,16 12,16 13,16 15,16 15,15 	"/>
</g>
</svg>
