<?xml version="1.0" encoding="utf-8"?>
<!-- Generator: Adobe Illustrator 21.0.2, SVG Export Plug-In . SVG Version: 6.00 Build 0)  -->
<svg version="1.1" id="Layer_1" xmlns="http://www.w3.org/2000/svg" xmlns:xlink="http://www.w3.org/1999/xlink" x="0px" y="0px"
	 viewBox="0 0 24 24" style="enable-background:new 0 0 24 24;" xml:space="preserve">
<style type="text/css">
	.st0{fill:#FFFFFF;}
</style>
<g id="ic_x5F_employees_x5F_orders">
	<g>
		<path class="st0" d="M12,1c2.8,0,5,2.2,5,5s-2.2,5-5,5S7,8.8,7,6S9.2,1,12,1 M12,0C8.7,0,6,2.7,6,6s2.7,6,6,6s6-2.7,6-6
			S15.3,0,12,0L12,0z"/>
	</g>
	<g>
		<path class="st0" d="M12,15c4.6,0,8.4,3.5,8.9,8H3.1C3.6,18.5,7.4,15,12,15 M12,14C6.5,14,2,18.5,2,24c7,0,13,0,20,0
			C22,18.5,17.5,14,12,14L12,14z"/>
	</g>
	<g>
		<path class="st0" d="M12.9,3.1C12.6,3.1,12.3,3,12,3c-1.7,0-3,1.3-3,3c0,0.3,0.1,0.6,0.1,0.9C9.6,5,11,3.6,12.9,3.1z"/>
	</g>
</g>
</svg>
