<?xml version="1.0" encoding="utf-8"?>
<!-- Generator: Adobe Illustrator 22.0.1, SVG Export Plug-In . SVG Version: 6.00 Build 0)  -->
<svg version="1.1" id="Слой_1" xmlns="http://www.w3.org/2000/svg" xmlns:xlink="http://www.w3.org/1999/xlink" x="0px" y="0px"
	 width="20px" height="22px" viewBox="0 0 20 22" style="enable-background:new 0 0 20 22;" xml:space="preserve">
<style type="text/css">
	.st0{fill:#ffffff;}
</style>
<path class="st0" d="M18.9,5h-4.5V4.4C14.4,2,12.4,0,10,0S5.6,2,5.6,4.4V5H1.3L0,22h20L18.9,5z M6.6,4.4C6.6,2.5,8.1,1,10,1
	s3.4,1.5,3.4,3.4V5H6.6V4.4z M5.6,6v2h1V6h6.8v2h1V6H18l0.8,11.7H1.3L2.2,6H5.6z M1.2,18.7h17.5l0.1,2.3H1.1L1.2,18.7z"/>
</svg>
