<?xml version="1.0" encoding="utf-8"?>
<!-- Generator: Adobe Illustrator 22.0.1, SVG Export Plug-In . SVG Version: 6.00 Build 0)  -->
<svg version="1.1" id="Слой_1" xmlns="http://www.w3.org/2000/svg" xmlns:xlink="http://www.w3.org/1999/xlink" x="0px" y="0px"
	 width="20px" height="20px" viewBox="0 0 20 20" style="enable-background:new 0 0 20 20;" xml:space="preserve">
<style type="text/css">
	.st0{fill:#ffffff;}
</style>
<path class="st0" d="M18.5,3.9c-0.8-0.8-1.9-1.2-3-1.2c0,0,0,0-0.1,0c-0.2,0-0.4,0-0.5,0C13.9,1,11.9,0,10,0C8.1,0,6.1,1,5.1,2.7
	c-0.2,0-0.3,0-0.5,0c0,0-0.1,0-0.1,0c-1.1,0-2.2,0.4-3,1.2C0.6,4.8,0,6.1,0,7.5c0,1.8,1,3.6,2.6,4.4c0.4,0.2,0.6,0.6,0.6,1l0,7.2
	h13.7l0-7.2c0-0.4,0.2-0.8,0.6-1C19,11,20,9.3,20,7.5C20,6.1,19.4,4.8,18.5,3.9z M4.2,19l0-3h11.7l0,3H4.2z M16.9,11
	c-0.7,0.4-1.1,1.1-1.1,1.8l0,2.2H4.2l0-2.2c0-0.8-0.4-1.5-1.1-1.8c-1.2-0.6-2-2-2-3.5c0-1.1,0.5-2.2,1.2-2.9c0.7-0.6,1.5-1,2.4-1
	c0,0,0,0,0.1,0C4.3,4.5,4.2,5.4,4.3,6.3c0.2,1,0.7,2,1.4,2.7C4.6,7.3,4.6,5.1,5.5,3.6C6.4,2,8.2,1,10,1c1.8,0,3.6,1,4.5,2.6
	c0.9,1.6,0.9,3.7-0.2,5.4c0.7-0.7,1.2-1.7,1.4-2.7c0.1-0.9,0-1.8-0.3-2.7c0,0,0,0,0.1,0c0.9,0,1.7,0.3,2.4,1C18.5,5.3,19,6.4,19,7.5
	C19,9,18.2,10.3,16.9,11z"/>
</svg>
