<?xml version="1.0" encoding="utf-8"?>
<!-- Generator: Adobe Illustrator 21.0.2, SVG Export Plug-In . SVG Version: 6.00 Build 0)  -->
<svg version="1.1" id="Layer_1" xmlns="http://www.w3.org/2000/svg" xmlns:xlink="http://www.w3.org/1999/xlink" x="0px" y="0px"
	 viewBox="0 0 24 24" style="enable-background:new 0 0 24 24;" xml:space="preserve">
<style type="text/css">
	.st0{fill:#FFFFFF;}
</style>
<g id="ic_x5F_logistics">
	<g>
		<path class="st0" d="M12,1c5,0,9,4,9,9c0,6.3-7,11.5-9,12.8c-2-1.3-9-6.5-9-12.8C3,5,7,1,12,1 M12,0C6.5,0,2,4.5,2,10
			c0,8,10,14,10,14s10-6,10-14C22,4.5,17.5,0,12,0L12,0z"/>
	</g>
	<g>
		<path class="st0" d="M12,7c1.7,0,3,1.3,3,3s-1.3,3-3,3s-3-1.3-3-3S10.3,7,12,7 M12,6c-2.2,0-4,1.8-4,4s1.8,4,4,4s4-1.8,4-4
			S14.2,6,12,6L12,6z"/>
	</g>
	<g>
		<path class="st0" d="M12.9,3.1C12.6,3,12.3,3,12,3c-3.9,0-7,3.1-7,7c0,0.3,0,0.6,0.1,0.9C5.6,6.8,8.8,3.6,12.9,3.1z"/>
	</g>
</g>
</svg>
