<?xml version="1.0" encoding="utf-8"?>
<!-- Generator: Adobe Illustrator 21.0.2, SVG Export Plug-In . SVG Version: 6.00 Build 0)  -->
<svg version="1.1" id="Layer_1" xmlns="http://www.w3.org/2000/svg" xmlns:xlink="http://www.w3.org/1999/xlink" x="0px" y="0px"
	 viewBox="0 0 24 24" style="enable-background:new 0 0 24 24;" xml:space="preserve">
<style type="text/css">
	.st0{fill:#FFFFFF;}
</style>
<g id="ic_x5F_side_x5F_menu">
	<g>
		<path class="st0" d="M12,1c6.1,0,11,4.9,11,11s-4.9,11-11,11S1,18.1,1,12S5.9,1,12,1 M12,0C5.4,0,0,5.4,0,12s5.4,12,12,12
			s12-5.4,12-12S18.6,0,12,0L12,0z"/>
	</g>
	<g>
		<path class="st0" d="M12,7c2.8,0,5,2.2,5,5s-2.2,5-5,5s-5-2.2-5-5S9.2,7,12,7 M12,6c-3.3,0-6,2.7-6,6s2.7,6,6,6s6-2.7,6-6
			S15.3,6,12,6L12,6z"/>
	</g>
	<g>
		<path class="st0" d="M11,20.9c0.3,0,0.6,0.1,1,0.1c5,0,9-4,9-9c0-0.3,0-0.6-0.1-1C20.5,16.3,16.3,20.5,11,20.9z"/>
	</g>
	<g>
		<path class="st0" d="M12.9,9.1C12.6,9.1,12.3,9,12,9c-1.7,0-3,1.3-3,3c0,0.3,0.1,0.6,0.1,0.9C9.6,11,11,9.6,12.9,9.1z"/>
	</g>
</g>
</svg>
