<?xml version="1.0" encoding="utf-8"?>
<!-- Generator: Adobe Illustrator 21.0.2, SVG Export Plug-In . SVG Version: 6.00 Build 0)  -->
<svg version="1.1" id="Layer_1" xmlns="http://www.w3.org/2000/svg" xmlns:xlink="http://www.w3.org/1999/xlink" x="0px" y="0px"
	 viewBox="0 0 24 24" style="enable-background:new 0 0 24 24;" xml:space="preserve">
<style type="text/css">
	.st0{opacity:0;fill:#FFFFFF;}
	.st1{fill:#FFFFFF;}
</style>
<g id="ic_x5F_settings">
	<g>
		<circle class="st0" cx="12" cy="12" r="3.5"/>
		<path class="st1" d="M12,9c1.7,0,3,1.3,3,3s-1.3,3-3,3s-3-1.3-3-3S10.3,9,12,9 M12,8c-2.2,0-4,1.8-4,4s1.8,4,4,4s4-1.8,4-4
			S14.2,8,12,8L12,8z"/>
	</g>
	<g>
		<path class="st1" d="M9.9,1L9.9,1L9.9,1L12,1h1h1.1c0,0,0.4,0,0.4,0.2l0.4,2.7l0.1,0.6l0.6,0.2C16,4.8,16.5,5.1,17,5.5l0.5,0.3
			L18,5.6l2.2-0.9l0,0l0,0c0.1,0,0.1,0,0.2,0c0.1,0,0.2,0,0.2,0.1L23,8.5l-2.2,1.7l-0.5,0.4l0.1,0.6c0,0.1,0,0.3,0,0.4l0,0.5l0,0.4
			c0,0.2,0,0.3,0,0.5l-0.1,0.6l0.5,0.4l2.2,1.7l0,0l-2.3,3.8c-0.1,0.1-0.1,0.1-0.2,0.1c-0.1,0-0.1,0-0.2,0l0,0l0,0L18,18.4l-0.5-0.2
			L17,18.5c-0.5,0.4-1,0.6-1.6,0.8l-0.6,0.2l-0.1,0.6l-0.4,2.7c0,0.1-0.2,0.2-0.3,0.2h0H13h-1h-2c0,0-0.4,0-0.4-0.2l-0.4-2.7
			l-0.1-0.6l-0.6-0.2C8,19.2,7.5,18.9,7,18.5l-0.5-0.3L6,18.4l-2.2,0.9l0,0l0,0c-0.1,0-0.1,0-0.2,0c-0.1,0-0.2,0-0.2-0.1L1,15.5
			l2.2-1.7l0.5-0.4l-0.1-0.6c0-0.1,0-0.3,0-0.4l0-0.4l0-0.4c0-0.1,0-0.3,0-0.4l0.1-0.6l-0.5-0.4L1,8.5l0,0l2.3-3.8
			c0.1-0.1,0.1-0.1,0.2-0.1c0.1,0,0.1,0,0.2,0l0,0l0,0L6,5.6l0.5,0.2L7,5.5c0.5-0.4,1-0.6,1.6-0.8l0.6-0.2l0.1-0.6l0.4-2.7
			C9.6,1,9.8,1,9.9,1 M9.9,0C9.3,0,8.7,0.4,8.6,1L8.2,3.7c-0.6,0.2-1.3,0.6-1.8,1L4.2,3.7C4,3.6,3.8,3.5,3.6,3.5
			c-0.4,0-0.8,0.2-1,0.5L0.2,8c-0.3,0.4-0.2,0.9,0.1,1.2L2.6,11c-0.1,0.3-0.1,0.7-0.1,1h0c0,0,0,0,0,0c0,0,0,0,0,0h0
			c0,0.3,0,0.7,0.1,1l-2.3,1.7l-0.1,0c-0.3,0.3-0.4,0.8-0.1,1.2l2.4,3.9l0,0c0.3,0.3,0.6,0.5,1,0.5c0.2,0,0.4-0.1,0.7-0.2l2.2-0.9
			c0.6,0.4,1.2,0.7,1.8,1L8.6,23c0,0,0,0,0,0c0.1,0.7,0.7,1,1.4,1h2h0h1h1.1c0,0,0,0,0,0c0.7,0,1.3-0.4,1.4-1l0.4-2.7
			c0.6-0.2,1.3-0.6,1.8-1l2.2,0.9c0.2,0.1,0.4,0.2,0.6,0.2c0.4,0,0.8-0.2,1-0.5l2.4-3.9c0.3-0.4,0.2-0.9-0.1-1.2L21.4,13
			c0.1-0.3,0.1-0.7,0.1-1l0,0c0,0,0,0,0,0c0,0,0,0,0,0h0c0-0.3,0-0.7-0.1-1l2.3-1.7l0.1,0c0.3-0.3,0.4-0.8,0.1-1.2l-2.4-3.9l0,0
			c-0.3-0.3-0.6-0.5-1-0.5c-0.2,0-0.4,0.1-0.7,0.2l-2.2,0.9c-0.6-0.4-1.2-0.7-1.8-1L15.4,1c0,0,0,0,0,0c-0.1-0.7-0.7-1-1.4-1H13h-1
			L9.9,0C9.9,0,9.9,0,9.9,0C9.9,0,9.9,0,9.9,0L9.9,0z"/>
	</g>
</g>
</svg>
