<?xml version="1.0" encoding="utf-8"?>
<!-- Generator: Adobe Illustrator 18.0.0, SVG Export Plug-In . SVG Version: 6.00 Build 0)  -->
<!DOCTYPE svg PUBLIC "-//W3C//DTD SVG 1.1//EN" "http://www.w3.org/Graphics/SVG/1.1/DTD/svg11.dtd">
<svg version="1.1" id="Layer_1" xmlns="http://www.w3.org/2000/svg" xmlns:xlink="http://www.w3.org/1999/xlink" x="0px" y="0px"
	 viewBox="0 0 798.7 166.6" enable-background="new 0 0 798.7 166.6" xml:space="preserve">
<g>
	<path fill="#1D1D1B" d="M10.5,50.8c7-8.5,15.4-12.8,25.3-12.8c4.9,0,9.3,1.2,13.1,3.6c2.4,1.5,5.3,4.1,8.9,7.8V15.3
		c0-4.7-0.9-7.6-2.7-8.8c-1.8-1.1-5.6-1.8-11.3-2.1V0H84v107.3c0,3.9,0.7,6.5,2.2,8c1.5,1.5,4.3,2.4,8.6,2.8v4.3
		c-10.4,1-17.2,1.8-20.2,2.3c-3,0.5-8.4,1.8-16,4v-12.3c-3.5,3.6-6.7,6.3-9.7,8.1c-4.6,2.8-9.6,4.2-14.9,4.2
		c-9.1,0-17-3.9-23.8-11.6C3.4,109.4,0,98.9,0,85.7C0,70.9,3.5,59.3,10.5,50.8 M53,112.7c3.2-3.6,4.8-6.1,4.8-7.6V59.8
		c0-1.5-1.4-3.8-4.1-6.7c-2.7-3-6.4-4.5-10.9-4.5c-6.6,0-11.1,4.6-13.5,13.8c-1.3,4.9-1.9,11.9-1.9,20.8c0,9.6,0.6,16.8,1.8,21.7
		c2.3,8.8,6.6,13.2,13,13.2C46.2,118.1,49.8,116.3,53,112.7"/>
	<path fill="#1D1D1B" d="M103.9,50.8c8-8.7,18-13,30.1-13c12.3,0,22.4,4.4,30.3,13.3c7.9,8.9,11.8,19.6,11.8,32.2
		c0,12.4-3.9,23.1-11.7,32.1c-7.8,9-17.9,13.4-30.4,13.4c-12.1,0-22.2-4.4-30.1-13.1c-8-8.7-11.9-19.5-11.9-32.5
		C91.9,70.3,95.9,59.5,103.9,50.8 M121.3,110.7c2.1,8.1,6.3,12.1,12.7,12.1c6,0,10-3.1,11.8-9.3c1.9-6.2,2.8-16.3,2.8-30.2
		c0-13.9-1-24-3-30.2c-2-6.2-5.8-9.3-11.6-9.3c-6.3,0-10.5,4-12.7,12.1c-1.4,5.4-2.1,14.5-2.1,27.4
		C119.3,96.4,120,105.5,121.3,110.7"/>
	<path fill="#1D1D1B" d="M208,40.2v63.3c0,3.8,0.5,6.5,1.4,8.3c1.6,3.1,4.7,4.6,9.4,4.6c3,0,5.9-0.9,8.7-2.8c1.6-1,3.7-2.8,6.2-5.2
		V55.4c0-3.9-0.8-6.7-2.3-8.2c-1.6-1.6-4.7-2.4-9.3-2.6v-4.5h37.2v67.2c0,3.9,0.7,6.5,2.2,8c1.5,1.5,4.3,2.4,8.6,2.8v4.3
		c-11.5,1.1-18.8,1.9-21.8,2.4c-3,0.5-7.8,1.8-14.4,3.9v-12.3c-4.4,3.8-8.1,6.5-11,8.1c-5.1,2.8-10.4,4.2-15.9,4.2
		c-6,0-11.6-1.9-16.8-5.7c-5.2-3.8-7.8-10.6-7.8-20.4V55.4c0-4-0.6-6.6-1.9-7.8c-1.3-1.2-3.7-2.2-7.4-3v-4.5H208z"/>
	<path fill="#1D1D1B" d="M330.8,43.5c5.7,3.8,8.6,8.7,8.6,14.8c0,3.2-1.1,6-3.4,8.4c-2.3,2.4-5.2,3.5-8.7,3.5
		c-2.4,0-4.4-0.5-6.2-1.6c-3.3-1.9-5-5.5-5-10.6c0-0.5,0-1.4,0.1-2.4c0.1-1.1,0.1-2.2,0.1-3.4c0-3.3-0.8-5.5-2.3-6.7
		c-1.6-1.2-3.4-1.8-5.4-1.8c-5.8,0-9.9,3.2-12.3,9.5c-2.4,6.3-3.6,13.6-3.6,21.8c0,11.7,2.3,21.4,6.9,29.3
		c4.6,7.9,10.8,11.8,18.7,11.8c4.9,0,9.1-1.1,12.6-3.3c2.1-1.3,4.6-3.6,7.7-7l3.5,3.2c-6.1,8.4-13.2,14.2-21.3,17.4
		c-4.3,1.6-8.9,2.5-13.7,2.5c-12,0-21.7-4.3-29.3-12.8c-7.6-8.6-11.4-19-11.4-31.3c0-13,4-24.1,12.1-33.2c8-9.1,18.8-13.7,32.2-13.7
		C318.3,37.8,325.1,39.7,330.8,43.5"/>
	<path fill="#1D1D1B" d="M336.8,124.2c3.4-0.4,5.9-1.4,7.5-2.8c1.6-1.4,2.4-4.3,2.4-8.5v-95c0-3.7-0.7-6.4-2-7.9
		c-1.3-1.5-4-2.5-7.9-3V2.6h36.1v52.5c3.8-4.6,7.8-8.2,12.1-10.7c4.2-2.5,9-3.8,14.3-3.8c7.2,0,13.1,2.1,17.8,6.2
		c4.7,4.2,7,11.2,7,21.3v44.8c0,4.2,0.7,6.9,2.1,8.2c1.4,1.3,3.8,2.3,7.1,3.1v4.5h-43.8v-4.5c3.3-0.7,5.6-1.6,6.8-2.7
		c1.2-1.2,1.8-3.8,1.8-7.8V68.5c0-4.2-0.4-7.4-1.3-9.6c-1.5-3.8-4.3-5.7-8.7-5.7c-3.2,0-6.5,1.5-10,4.5c-3.4,3-5.1,5-5.1,6.1v49.9
		c0,4.1,0.6,6.7,1.8,7.8c1.2,1.2,3.5,2.1,6.8,2.7v4.5h-44.9V124.2z"/>
	<path fill="#1D1D1B" d="M442,49.9c7.6-7.9,16.8-11.9,27.6-11.9c6.1,0,11.9,1.6,17.3,4.8c5.4,3.2,9.6,7.7,12.5,13.4
		c2.2,4.3,3.7,9.9,4.6,16.8c0.4,3.2,0.6,5.7,0.6,7.4H457c0.4,7.5,1.6,13.9,3.7,19.4c3.7,10.3,10.1,15.4,19.3,15.4
		c4.4,0,8.5-1.4,12.4-4.1c2.4-1.6,5.3-4.4,8.8-8.3l4.3,2.6c-5.8,9.5-12.5,16.1-20.1,19.8c-4.9,2.4-10.6,3.5-17,3.5
		c-9.2,0-17.8-3.6-25.8-10.8c-8-7.2-12-18.8-12-34.6C430.6,68.9,434.4,57.8,442,49.9 M481.7,73.4c-0.1-11-1-18.7-2.6-23
		c-1.6-4.4-4.7-6.6-9.5-6.6c-4.9,0-8.2,2.5-10,7.6c-1.8,5-2.8,12.4-3.1,22H481.7z"/>
	<path fill="#1D1D1B" d="M498.7,12.2V9.1c6.9-1.6,13.2-3.3,18.7-5.3c5.5-1.9,8.5-2.9,9-2.9c0.1,0.4,0.2,0.7,0.2,1.1v54.4
		c1.6-2.9,3.9-5.7,7.1-8.3c5.6-4.6,12-6.8,19.3-6.8c8.9,0,16.5,3.8,22.8,11.3c6.3,7.5,9.5,17.3,9.5,29.3c0,12.9-4.1,23.9-12.3,33.1
		c-8.2,9.2-19,13.7-32.3,13.7c-6.7,0-13.4-1.3-19.8-4c-6.5-2.7-9.7-5.3-9.7-8V21.5c0-3.5-0.5-6-1.5-7.5c-1-1.5-3.2-2.2-6.7-2.2
		L498.7,12.2z M533.4,120.3c4.2,1.4,7.8,2,11,2c8.5,0,14.7-3.2,18.8-9.6c4.1-6.4,6.1-14.1,6.1-23.1c0-9-1.9-17.4-5.7-25.1
		c-3.8-7.7-10-11.5-18.5-11.5c-4.3,0-8.5,1.3-12.6,4c-4.1,2.6-6.2,6-6.2,10v46.4C526.8,116.7,529.2,119,533.4,120.3"/>
	<path fill="#1D1D1B" d="M600.1,87.1c5.6-3.6,16.7-8.6,33.4-14.8v-8.4c0-6.2-0.6-10.5-1.8-12.9c-2.1-4.1-6.3-6.1-12.8-6.1
		c-3.1,0-6,0.8-8.8,2.4c-2.8,1.6-4.2,3.9-4.2,6.7c0,0.7,0.2,2,0.5,3.7c0.3,1.7,0.5,2.8,0.5,3.3c0,3.4-1.1,5.8-3.4,7.1
		c-1.3,0.8-2.8,1.2-4.6,1.2c-2.7,0-4.8-0.9-6.3-2.7c-1.5-1.8-2.2-3.8-2.2-6c0-4.2,2.6-8.7,7.9-13.3c5.2-4.6,12.9-7,23.1-7
		c11.8,0,19.8,3.8,23.9,11.5c2.2,4.2,3.4,10.3,3.4,18.3v37.1c0,3.5,0.2,6,0.7,7.3c0.8,2.4,2.4,3.6,4.9,3.6c1.4,0,2.5-0.2,3.5-0.6
		c0.9-0.4,2.5-1.5,4.7-3.1v4.7c-1.9,2.4-4,4.3-6.3,5.8c-3.4,2.3-6.9,3.5-10.4,3.5c-4.1,0-7.1-1.3-9-4c-1.9-2.7-2.9-5.9-3.1-9.6
		c-4.6,4-8.6,7-11.8,8.9c-5.5,3.3-10.8,4.9-15.7,4.9c-5.2,0-9.7-1.8-13.6-5.5c-3.8-3.7-5.7-8.3-5.7-14
		C586.9,100.4,591.3,93,600.1,87.1 M633.6,76.8c-7,2.3-12.8,4.9-17.3,7.7c-8.7,5.4-13.1,11.5-13.1,18.4c0,5.5,1.8,9.6,5.5,12.2
		c2.4,1.7,5,2.6,7.9,2.6c4,0,7.8-1.1,11.5-3.4c3.7-2.2,5.5-5.1,5.5-8.6V76.8z"/>
	<path fill="#1D1D1B" d="M668.9,85.7c-3.1-4.7-4.6-9.9-4.6-15.8c0-7.1,2.8-13.8,8.5-20.2c5.7-6.4,13.6-9.6,23.9-9.6
		c4.4,0,9.3,1,14.7,3.1c5.3,2.1,10.5,3.1,15.4,3.1c1.3,0,3.2,0,5.8-0.1c2.6-0.1,4.4-0.1,5.6-0.1h1.1v7.4h-15.8
		c1.1,2.5,1.9,4.8,2.6,6.6c1,3.5,1.6,6.9,1.6,10c0,6.9-2.9,13.3-8.6,19.1c-5.7,5.8-13.5,8.7-23.2,8.7c-1.5,0-4.3-0.3-8.2-0.8
		c-1.8,0-4.1,1.5-7,4.5c-2.9,3-4.4,5.4-4.4,7.3c0,1.9,2.1,3.4,6.4,4.3c2.8,0.6,5.9,0.9,9.3,0.9c15.6,0,26.2,0.9,31.8,2.6
		c9.2,2.9,13.8,9,13.8,18.4c0,9.6-5.4,17.2-16.1,23c-10.7,5.7-21.5,8.5-32.5,8.5c-10,0-17.8-2-23.7-6c-5.8-4-8.7-8.3-8.7-12.7
		c0-2.2,0.8-4.3,2.3-6.4c1.5-2.1,4.6-5.2,9.1-9.3l6-5.4l1.1-1.1c-2.8-1.1-4.8-2.1-6.2-3.2c-2.4-1.9-3.6-4-3.6-6.5
		c0-2.2,1-4.7,3.1-7.4c2.1-2.7,6.6-7.1,13.4-13.2C676.3,93.6,672,90.4,668.9,85.7 M678.6,153.4c5.7,1.9,12.3,2.9,19.7,2.9
		c10.1,0,18.3-1.7,24.6-5.2c6.3-3.5,9.5-7.8,9.5-12.9c0-4.1-2.6-6.8-7.7-8.1c-3.2-0.8-9.2-1.2-18-1.4c-2.3-0.1-4.6-0.1-7.1-0.2
		c-2.5-0.1-4.8-0.2-6.8-0.3c-1.3-0.1-3.5-0.3-6.5-0.7c-3-0.4-5.2-0.8-6.7-1.1c-0.7,0-2.5,1.9-5.3,5.7c-2.9,3.9-4.3,7.5-4.3,10.7
		C670,148,672.9,151.5,678.6,153.4 M707.5,90.9c3.6-2.9,5.5-8,5.5-15.2c0-5.8-1.5-12.3-4.4-19.5c-3-7.2-7.8-10.8-14.7-10.8
		c-6,0-10.1,2.8-12.3,8.5c-1.2,3-1.7,6.6-1.7,11c0,7.4,1.8,14.1,5.4,19.9c3.6,5.9,8.2,8.8,13.9,8.8
		C702.5,93.6,705.3,92.7,707.5,90.9"/>
	<path fill="#1D1D1B" d="M743.5,97.3h3c1.4,6.9,3.3,12.2,5.6,15.9c4.2,6.8,10.4,10.2,18.6,10.2c4.5,0,8.1-1.3,10.8-3.8
		c2.6-2.5,4-5.8,4-9.8c0-2.6-0.8-5-2.3-7.4c-1.5-2.4-4.2-4.7-8-6.9L765,89.8c-7.5-4-13-8-16.5-12.1c-3.5-4.1-5.3-8.9-5.3-14.4
		c0-6.8,2.4-12.4,7.3-16.8c4.9-4.4,11-6.6,18.3-6.6c3.2,0,6.8,0.6,10.6,1.8c3.9,1.2,6,1.8,6.5,1.8c1.1,0,1.9-0.2,2.4-0.5
		c0.5-0.3,0.9-0.8,1.3-1.5h2.2l0.6,25.4h-2.8c-1.2-5.9-2.9-10.5-4.9-13.8c-3.8-6.1-9.2-9.1-16.3-9.1c-4.3,0-7.6,1.3-10,3.9
		c-2.4,2.6-3.6,5.7-3.6,9.2c0,5.6,4.2,10.6,12.6,14.9l12,6.5c12.9,7,19.4,15.2,19.4,24.6c0,7.2-2.7,13-8,17.6
		c-5.4,4.6-12.4,6.8-21,6.8c-3.6,0-7.8-0.6-12.4-1.8c-4.6-1.2-7.3-1.8-8.2-1.8c-0.7,0-1.4,0.3-1.9,0.8c-0.5,0.5-1,1.1-1.3,1.9h-2.4
		V97.3z"/>
</g>
</svg>
